<svg xmlns="http://www.w3.org/2000/svg" viewBox="0 0 1284.76 1291.7"><defs><style>.cls-1{fill:#fff;}.cls-2{fill:#e9b995;}.cls-3{fill:#c59875;}.cls-4{fill:#ffdfca;}.cls-5{fill:#ae5926;}.cls-6{fill:#87441c;}.cls-7{fill:#d6496b;}.cls-8{fill:#ff719a;}</style></defs><title>bidza</title><g id="Слой_1" data-name="Слой 1"><path class="cls-1" d="M1643,892.19l-12.5-6.31a222,222,0,0,1,15.61-25.68c13.22-18.62,25.07-28,36.22-28.64a20.19,20.19,0,0,1,14.38,4.89c5.6-5.63,14.74-12.77,24.9-12.5a20.69,20.69,0,0,1,11.1,3.63c4.57-7.2,12-14.14,22.68-14.54,2.4-5.08,7.13-12.25,15.59-15.47,7.94-3,17-1.92,27.09,3.3a25.45,25.45,0,0,1,13.77-11.59c13.4-4.55,31,2.31,52.41,20.39,10.06.05,30.92,9.38,73.48,52.44l-10,9.84c-44.17-44.68-60.72-48-63.42-48.2l-3.26,1.71-3.61-3.15c-24.11-21-36.06-21.44-41-19.8-6.39,2.11-8.16,9.88-8.17,10l-2.07,10.35-8.72-6c-6.18-4.2-14.93-8.68-21.51-6.17s-9.08,11.33-9.1,11.42l-1.58,6.34-6.44-1.15c-12.21-2.18-17.19,13.76-17.39,14.44L1737.08,856l-8.22-12.46c-3.6-5.49-6.66-5.58-7.66-5.61-7.22-.18-16.26,9.76-18.87,13.27l-6,8-5.5-8.32c-3.69-5.59-6.65-5.42-7.77-5.36C1671.3,846.22,1652.52,873.23,1643,892.19Z" transform="translate(-1174.47 -612.35)"/></g><g id="Слой_7" data-name="Слой 7"><path class="cls-2" d="M1625.73,1296s-27,15-33,0-9-34.5-9-34.5-63-60-19.5-103.5c0,0,49.5,15,61.5,25.5V1032l34.5-76.5,310.48,6,30,39-3,184.49s33-37.49,51-22.5,25.5,39,10.5,61.5-27,36-27,36,3,64.5-43.5,37.5-48-27-48-27l21,216s-46.5,66-135,100.49l-22.5,7.5-120-87Z" transform="translate(-1174.47 -612.35)"/></g><g id="Слой_9" data-name="Слой 9"><path class="cls-3" d="M2053.14,1156.37l-29,6-27,22,7-161-2.54-3,3.54-8-34-50-21-3-136,6s15,19,43,17l28-2s41.19,26.86,65.95,3.48a6.36,6.36,0,0,1,9.12.29,86.64,86.64,0,0,1,11.11,16.78,124.7,124.7,0,0,1,14.16,63l-5.34,143.43,14-13,2,111,28-6,7-41,28-33,8-40Z" transform="translate(-1174.47 -612.35)"/><path class="cls-4" d="M1667.14,971.37s-32,55-31,79-1,167-1,167l-14,80-23,8-14-29,2-21-25-24-14-38,13-28,33-6,26,24h4l4-169S1645.14,957.37,1667.14,971.37Z" transform="translate(-1174.47 -612.35)"/><path class="cls-3" d="M1779.8,1203s1.34,8,9.34,7,13.66,6,17,6.34,9.47-5.12,12.33-5.34c4.33-.33,12.33,0,14.33-4.66l1.34,14-15,9-8.34,15,5,35.66-18-.66,3.67-28.34-3-19-19.33-9.66s-9.67-5.34-9.67-6.34S1779.8,1203,1779.8,1203Z" transform="translate(-1174.47 -612.35)"/><polygon class="cls-3" points="528.67 903.01 619.67 909.01 730.67 891.01 780.67 878.01 785.67 877.01 773.67 896.01 696.67 954.01 528.67 903.01"/></g><g id="Слой_2" data-name="Слой 2"><path d="M1970.14,1481.37s28,56-32,157l-1,47s110-26,205-136Z" transform="translate(-1174.47 -612.35)"/><path d="M1661.14,1480.37s-28,56,32,157l1,47s-110-26-205-136Z" transform="translate(-1174.47 -612.35)"/><path class="cls-5" d="M1813.14,1708.87a438.13,438.13,0,1,1,171.07-34.54A437,437,0,0,1,1813.14,1708.87Zm0-860c-231.87,0-420.5,188.63-420.5,420.5s188.63,420.5,420.5,420.5,420.5-188.64,420.5-420.5S2045,848.87,1813.14,848.87Z" transform="translate(-1174.47 -612.35)"/><path class="cls-5" d="M1815.14,1734.86a468.53,468.53,0,0,1-53.76-933.95l3-.33c4.74-.51,9.22-.92,13.63-1.26,5.69-.45,11.35-.79,16.78-1,.33,0,.65,0,1,0,2-.09,4.17-.16,6.47-.21s4.48-.12,6.77-.15q3,0,6,0c5.57,0,11,.1,16.32.29,3.91.12,7.8.3,11.53.53,3.23.18,6.53.41,9.77.67,10,.79,20.22,1.93,30.2,3.39l.44.06a468.5,468.5,0,0,1-68.2,932.06Zm-19-917.6-.39,0c-5.23.2-10.7.53-16.25,1-4.24.32-8.52.72-13.11,1.22l-2.9.31c-226.82,25.92-397.88,217.9-397.88,446.57,0,247.86,201.64,449.5,449.5,449.5s449.5-201.64,449.5-449.5c0-221.39-164.76-412.43-383.36-444.66h0l-.7-.1c-9.69-1.43-19.58-2.54-29.38-3.31-3.12-.25-6.26-.47-9.37-.64-3.6-.22-7.3-.39-11.06-.51-5.1-.19-10.34-.28-15.62-.28-2,0-3.89,0-5.81,0-2.18,0-4.36.07-6.52.14s-4.33.12-6.29.21Z" transform="translate(-1174.47 -612.35)"/><path class="cls-5" d="M1815.14,1734.86a468.52,468.52,0,0,1-57.4-933.51,35.69,35.69,0,0,1,13.45-8.84c7.6-2.79,15.68-2.84,24.1-.16a36.3,36.3,0,0,1,18.46-10.9c14.69-3.4,30.57,2.61,47.26,17.87a57.66,57.66,0,0,1,23.29,3.62,468.5,468.5,0,0,1-69.16,931.92Zm-32-925.46a15.78,15.78,0,0,0-5.45,1,18,18,0,0,0-7.83,5.91l-2.45,3.08-3.91.45c-226.84,25.92-397.9,217.9-397.9,446.57,0,247.86,201.64,449.5,449.5,449.5s449.5-201.64,449.5-449.5c0-221.39-164.76-412.43-383.36-444.66h-1l-1.63-.6c-8.87-3.33-15.34-3.18-19.19-2.47l-4.86.89-3.52-3.46c-8.92-8.77-21.89-18.68-33-16.1-4.57,1.06-8.5,4.09-11.67,9l-4.59,7.11-7.59-3.73A25.15,25.15,0,0,0,1783.18,809.4Z" transform="translate(-1174.47 -612.35)"/><path class="cls-5" d="M1815.14,1734.86a468.52,468.52,0,0,1-57.4-933.51,35.69,35.69,0,0,1,13.45-8.84c7.6-2.79,15.68-2.84,24.1-.16a36.3,36.3,0,0,1,18.46-10.9c14.69-3.4,30.57,2.61,47.26,17.87a57.66,57.66,0,0,1,23.29,3.62,468.5,468.5,0,0,1-69.16,931.92Zm-32-925.46a15.78,15.78,0,0,0-5.45,1,18,18,0,0,0-7.83,5.91l-2.45,3.08-3.91.45c-226.84,25.92-397.9,217.9-397.9,446.57,0,247.86,201.64,449.5,449.5,449.5s449.5-201.64,449.5-449.5c0-221.39-164.76-412.43-383.36-444.66h-1l-1.63-.6c-8.87-3.33-15.34-3.18-19.19-2.47l-4.86.89-3.52-3.46c-8.92-8.77-21.89-18.68-33-16.1-4.57,1.06-8.5,4.09-11.67,9l-4.59,7.11-7.59-3.73A25.15,25.15,0,0,0,1783.18,809.4Z" transform="translate(-1174.47 -612.35)"/><path class="cls-5" d="M1815.14,1734.86a468.52,468.52,0,0,1-57.4-933.51,35.69,35.69,0,0,1,13.45-8.84c7.6-2.79,15.68-2.84,24.1-.16a36.3,36.3,0,0,1,18.46-10.9c14.69-3.4,30.57,2.61,47.26,17.87a57.66,57.66,0,0,1,23.29,3.62,468.5,468.5,0,0,1-69.16,931.92Zm-32-925.46a15.78,15.78,0,0,0-5.45,1,18,18,0,0,0-7.83,5.91l-2.45,3.08-3.91.45c-226.84,25.92-397.9,217.9-397.9,446.57,0,247.86,201.64,449.5,449.5,449.5s449.5-201.64,449.5-449.5c0-221.39-164.76-412.43-383.36-444.66h-1l-1.63-.6c-8.87-3.33-15.34-3.18-19.19-2.47l-4.86.89-3.52-3.46c-8.92-8.77-21.89-18.68-33-16.1-4.57,1.06-8.5,4.09-11.67,9l-4.59,7.11-7.59-3.73A25.15,25.15,0,0,0,1783.18,809.4Z" transform="translate(-1174.47 -612.35)"/><path class="cls-5" d="M1815.14,1734.86a468.52,468.52,0,0,1-57.4-933.51,35.69,35.69,0,0,1,13.45-8.84c7.6-2.79,15.68-2.84,24.1-.16a36.3,36.3,0,0,1,18.46-10.9c14.69-3.4,30.57,2.61,47.26,17.87a57.66,57.66,0,0,1,23.29,3.62,468.5,468.5,0,0,1-69.16,931.92Zm-32-925.46a15.78,15.78,0,0,0-5.45,1,18,18,0,0,0-7.83,5.91l-2.45,3.08-3.91.45c-226.84,25.92-397.9,217.9-397.9,446.57,0,247.86,201.64,449.5,449.5,449.5s449.5-201.64,449.5-449.5c0-221.39-164.76-412.43-383.36-444.66h-1l-1.63-.6c-8.87-3.33-15.34-3.18-19.19-2.47l-4.86.89-3.52-3.46c-8.92-8.77-21.89-18.68-33-16.1-4.57,1.06-8.5,4.09-11.67,9l-4.59,7.11-7.59-3.73A25.15,25.15,0,0,0,1783.18,809.4Z" transform="translate(-1174.47 -612.35)"/><path class="cls-5" d="M1815.14,1734.86a468.52,468.52,0,0,1-57.4-933.51,35.69,35.69,0,0,1,13.45-8.84c7.6-2.79,15.68-2.84,24.1-.16a36.3,36.3,0,0,1,18.46-10.9c14.69-3.4,30.57,2.61,47.26,17.87a57.66,57.66,0,0,1,23.29,3.62,468.5,468.5,0,0,1-69.16,931.92Zm-32-925.46a15.78,15.78,0,0,0-5.45,1,18,18,0,0,0-7.83,5.91l-2.45,3.08-3.91.45c-226.84,25.92-397.9,217.9-397.9,446.57,0,247.86,201.64,449.5,449.5,449.5s449.5-201.64,449.5-449.5c0-221.39-164.76-412.43-383.36-444.66h-1l-1.63-.6c-8.87-3.33-15.34-3.18-19.19-2.47l-4.86.89-3.52-3.46c-8.92-8.77-21.89-18.68-33-16.1-4.57,1.06-8.5,4.09-11.67,9l-4.59,7.11-7.59-3.73A25.15,25.15,0,0,0,1783.18,809.4Z" transform="translate(-1174.47 -612.35)"/><path class="cls-5" d="M2266.83,1549.89l-16-10.17a516.79,516.79,0,0,0-66.16-636l13.62-13.24c97.64,100.5,151.41,233,151.41,373.19A533.92,533.92,0,0,1,2266.83,1549.89Z" transform="translate(-1174.47 -612.35)"/><path class="cls-5" d="M1369.72,1562.92a535.8,535.8,0,0,1,54.56-666.68l13.82,13a516.79,516.79,0,0,0-52.63,643Z" transform="translate(-1174.47 -612.35)"/><path class="cls-5" d="M2266.83,1549.89l-16-10.17a516.79,516.79,0,0,0-66.16-636l13.62-13.24c97.64,100.5,151.41,233,151.41,373.19A533.92,533.92,0,0,1,2266.83,1549.89Z" transform="translate(-1174.47 -612.35)"/><path class="cls-5" d="M1369.72,1562.92a535.8,535.8,0,0,1,54.56-666.68l13.82,13a516.79,516.79,0,0,0-52.63,643Z" transform="translate(-1174.47 -612.35)"/><path class="cls-5" d="M2266.83,1549.89l-16-10.17a516.79,516.79,0,0,0-66.16-636l13.62-13.24c97.64,100.5,151.41,233,151.41,373.19A533.92,533.92,0,0,1,2266.83,1549.89Z" transform="translate(-1174.47 -612.35)"/><path class="cls-5" d="M1369.72,1562.92a535.8,535.8,0,0,1,54.56-666.68l13.82,13a516.79,516.79,0,0,0-52.63,643Z" transform="translate(-1174.47 -612.35)"/><path class="cls-5" d="M2266.83,1549.89l-16-10.17a516.79,516.79,0,0,0-66.16-636l13.62-13.24c97.64,100.5,151.41,233,151.41,373.19A533.92,533.92,0,0,1,2266.83,1549.89Z" transform="translate(-1174.47 -612.35)"/><path class="cls-5" d="M1369.72,1562.92a535.8,535.8,0,0,1,54.56-666.68l13.82,13a516.79,516.79,0,0,0-52.63,643Z" transform="translate(-1174.47 -612.35)"/><path class="cls-5" d="M2266.83,1549.89l-16-10.17a516.79,516.79,0,0,0-66.16-636l13.62-13.24c97.64,100.5,151.41,233,151.41,373.19A533.92,533.92,0,0,1,2266.83,1549.89Z" transform="translate(-1174.47 -612.35)"/><path class="cls-5" d="M1369.72,1562.92a535.8,535.8,0,0,1,54.56-666.68l13.82,13a516.79,516.79,0,0,0-52.63,643Z" transform="translate(-1174.47 -612.35)"/><path class="cls-5" d="M2266.83,1549.89l-16-10.17a516.79,516.79,0,0,0-66.16-636l13.62-13.24c97.64,100.5,151.41,233,151.41,373.19A533.92,533.92,0,0,1,2266.83,1549.89Z" transform="translate(-1174.47 -612.35)"/><path class="cls-5" d="M1369.72,1562.92a535.8,535.8,0,0,1,54.56-666.68l13.82,13a516.79,516.79,0,0,0-52.63,643Z" transform="translate(-1174.47 -612.35)"/><path class="cls-5" d="M2295.82,1568.26l-16.07-10.14A547,547,0,0,0,2364,1265.87c0-144.84-55.93-281.47-157.48-384.72l13.54-13.32a567.83,567.83,0,0,1,75.77,700.43Z" transform="translate(-1174.47 -612.35)"/><path class="cls-5" d="M1343.85,1582.12a567.78,567.78,0,0,1,60.84-708.21L1418.43,887a548.8,548.8,0,0,0-58.82,684.49Z" transform="translate(-1174.47 -612.35)"/><path class="cls-5" d="M1816.85,1904.05a641.85,641.85,0,0,1-642.38-642.39c0-165.49,62.77-322.65,176.75-442.52L1365,832.23a620.58,620.58,0,0,0-171.52,429.43c0,343.74,279.65,623.39,623.38,623.39s623.38-279.65,623.38-623.39c0-164.6-63.57-319.86-179-437.18l13.55-13.33a642.18,642.18,0,0,1-457.92,1092.9Z" transform="translate(-1174.47 -612.35)"/><path d="M1510.4,854.34l2.7,3.07,8,9.05,9.53,10.83-12,10.52L1509.11,877l-35.39,31.16,9.39,10.66-11.95,10.53-20.07-22.78,4.53-4a6.37,6.37,0,0,0,2.18-4.36,6.07,6.07,0,0,0-1.6-4.75l-90.06-102.29,42.82-37.7,94.33,107.13ZM1388.62,792.6l79.54,90.33a22.41,22.41,0,0,1,3.62,5.41l19.55-17.21L1407.53,776Z" transform="translate(-1174.47 -612.35)"/><path d="M1507,783.28a20.69,20.69,0,0,1-8.11,2.67,23.23,23.23,0,0,1-8.22-.55,22.1,22.1,0,0,1-7.49-3.44,21.5,21.5,0,0,1-5.83-6.26L1458,744.88a21.9,21.9,0,0,1-3.11-8.22,23.12,23.12,0,0,1,.18-8.62,21.24,21.24,0,0,1,3.44-7.88,22,22,0,0,1,6.39-6l29.18-18.3,83.82,133.71L1564.43,838l-40.83-65.12-2.55,1.6,23.86,75.76-13.86,8.69Zm-16.15-16a6.23,6.23,0,0,0,8.6,2l15.69-9.83-26.07-41.59-15.69,9.83a6.06,6.06,0,0,0-2.77,3.9,6.29,6.29,0,0,0,.91,4.89Z" transform="translate(-1174.47 -612.35)"/><path d="M1654.55,779.08l1.58,3.78L1660.8,794l5.57,13.3-14.69,6.16-5.58-13.3-43.48,18.23,5.5,13.1-14.7,6.16-11.74-28,5.56-2.33a6.37,6.37,0,0,0,3.47-3.43,6.06,6.06,0,0,0,0-5L1538,673.17l52.62-22.06,55.19,131.64Zm-95.68-97.38,46.53,111a22.05,22.05,0,0,1,1.7,6.29l24-10.07L1582.1,672Z" transform="translate(-1174.47 -612.35)"/><path d="M1674.08,710.71a21.13,21.13,0,0,1-8.54-.07,23.25,23.25,0,0,1-7.61-3.17,22.11,22.11,0,0,1-6-5.65,21.74,21.74,0,0,1-3.51-7.8L1640,658.63a21.87,21.87,0,0,1-.32-8.78,23.28,23.28,0,0,1,2.93-8.11,21.14,21.14,0,0,1,5.79-6.36,22,22,0,0,1,8-3.67l33.51-8,36.57,153.51-15.5,3.7-17.81-74.77-2.93.7-1.67,79.4-15.92,3.79Zm-10.17-20.38a6.26,6.26,0,0,0,7.52,4.63l18-4.29-11.38-47.75-18,4.29a6,6,0,0,0-3.87,2.8,6.31,6.31,0,0,0-.71,4.93Z" transform="translate(-1174.47 -612.35)"/><path d="M1792.3,628.8l.62,49.08,18.52-.23a22,22,0,0,1,8.63,1.61,22.54,22.54,0,0,1,12.21,11.91,22,22,0,0,1,1.83,8.58l.61,48a22.57,22.57,0,0,1-1.61,8.85,21.3,21.3,0,0,1-4.75,7.16,23.26,23.26,0,0,1-7.15,4.83,21.74,21.74,0,0,1-8.59,1.83l-34.45.44-2-157.8,56.83-.72.2,15.93ZM1818.18,700a6.26,6.26,0,0,0-6.54-6.38l-18.51.24.77,60.92,18.51-.24a6.24,6.24,0,0,0,6.38-6.54Z" transform="translate(-1174.47 -612.35)"/><path d="M1901.34,618.72a21.84,21.84,0,0,1,8.32,2.81,21.37,21.37,0,0,1,6.43,5.71,23.43,23.43,0,0,1,3.77,7.76,21.88,21.88,0,0,1,.61,8.76l-4.64,36.09a22.3,22.3,0,0,1-8.42,14.76A22.32,22.32,0,0,1,1891,699l-18.36-2.37-9.82,76.23-15.8-2,20.15-156.52Zm3.33,23a6.29,6.29,0,0,0-1.22-4.82,6.06,6.06,0,0,0-4.15-2.38l-18.36-2.36-6.27,48.68L1893,683.2a6.25,6.25,0,0,0,7-5.39Z" transform="translate(-1174.47 -612.35)"/><path d="M1947.3,723.26l50.61-83.61,13.91,3.85-42.1,152.09-15.35-4.25,25-90.46-50.56,83.4-13.91-3.85L1957,628.34l15.35,4.25Z" transform="translate(-1174.47 -612.35)"/><path d="M2110.82,684.71l-6.58,14.51-25.09-11.38-58.6,129.21L2006,810.47l58.6-129.21-25.3-11.47,6.58-14.51Z" transform="translate(-1174.47 -612.35)"/><path d="M2157.15,782.74a21.14,21.14,0,0,1-12.11,9,21.94,21.94,0,0,1-3.59,14.89l-26.33,40.15a22.57,22.57,0,0,1-6.28,6.44,22.09,22.09,0,0,1-24.54.12l-28.81-18.88,86.54-132,28.81,18.89a22,22,0,0,1,6.25,6.16,21.29,21.29,0,0,1,3.29,7.95,23.4,23.4,0,0,1,0,8.63,21.91,21.91,0,0,1-3.29,8.14Zm-29,15.21a6.3,6.3,0,0,0,1-4.88,6,6,0,0,0-2.68-4L2111,779l-33.41,50.95L2093,840.07a6,6,0,0,0,4.69.89,6.25,6.25,0,0,0,4.07-2.86Zm35.65-54.37a6.31,6.31,0,0,0,1-4.88,6,6,0,0,0-2.69-4l-15.48-10.15-26.92,41,15.48,10.15a6.25,6.25,0,0,0,8.65-1.8Z" transform="translate(-1174.47 -612.35)"/><path d="M2242.45,777a22.08,22.08,0,0,1,5.34,7,21.27,21.27,0,0,1,2.14,8.33,23.35,23.35,0,0,1-1.2,8.54,22,22,0,0,1-4.39,7.61L2155,910.22l-12-10.51L2193.74,842l-18.61-16.33-50.71,57.76-12-10.51,89.34-101.77a21.94,21.94,0,0,1,7-5.33,23.34,23.34,0,0,1,8.32-2.3,21.09,21.09,0,0,1,8.53,1,21.79,21.79,0,0,1,7.61,4.39Zm-56.81,36.65L2204.25,830l28.12-32a6.3,6.3,0,0,0,1.68-4.69,6,6,0,0,0-2.11-4.28l-9.22-8.1a6,6,0,0,0-4.52-1.54,6.24,6.24,0,0,0-4.43,2.27Z" transform="translate(-1174.47 -612.35)"/><path d="M1910.67,1565.79l-52.31,28.09a22.12,22.12,0,0,1-8.68,2.55,49.77,49.77,0,0,0-14-8.5,49.14,49.14,0,0,0-6.29-2h0a50.06,50.06,0,0,0-31.63,2.36l-1.32.58a50.35,50.35,0,0,0-11.93,7.65,22.07,22.07,0,0,1-9.61-2.6l-52.31-28.09a22,22,0,0,0-32.47,19.43v95.15c0,.39,0,.77,0,1.15,0,.62.08,1.23.16,1.82,1.63,13,14.07,18.81,27.81,16,5.91,9,19.2,14,28.77,7.46l15.22-10.46,28.53-19.59a50,50,0,0,0,50.47,1.47L1867,1696l18.64,12.8c10.21,7,27.48,1.54,28.13-11.32,12.68,3.81,26.53-2.71,29-13.67a15.1,15.1,0,0,0,.39-3.46v-95.15A22,22,0,0,0,1910.67,1565.79Zm-43.78,78.57v4.88a4.38,4.38,0,0,1-8.75,0v-4.88h-27.35a14.6,14.6,0,0,1-26,0h-27.85v4.88h0a4.36,4.36,0,0,1-8.7,0h0v-4.88h-11.22l-4.73,6.53a4,4,0,0,1-6.34.18l-5.46-6.71h-10.5v4.88a4.38,4.38,0,0,1-8.75,0v-23.5a4.38,4.38,0,1,1,8.75,0v3.13l10.7,0,5.43-6.06a4,4,0,0,1,6.07.14l4.88,5.94h11.17v-3.18a4.38,4.38,0,1,1,8.75,0v3.2l29.19,0a14.58,14.58,0,0,1,23.39,0l28.67,0v-3.3a4.38,4.38,0,1,1,8.75,0v3.31l11.54,0,5.59-6.24a4,4,0,0,1,6.07.14l5,6.12h11.27v-3.36a4.38,4.38,0,1,1,8.75,0v23.5a4.38,4.38,0,0,1-8.75,0v-4.88h-11.47l-4.73,6.53a4,4,0,0,1-6.34.18l-5.46-6.71Z" transform="translate(-1174.47 -612.35)"/><path d="M1692.28,1639.18c-28.6-47.74-37.16-87.29-39.31-112-2.36-27.16,2.16-42.88,2.35-43.54l2.11-7.13,5.34,5.18c.81.79,82.26,79.3,152.67,110.1l-3.61,8.25c-61.55-26.93-129-87.32-149.34-106.23a146.15,146.15,0,0,0-.51,33.16c2.14,23.71,10.47,61.63,38,107.63Z" transform="translate(-1174.47 -612.35)"/><path d="M1938.79,1640.18l-7.72-4.63c27.55-46,35.61-84.45,37.52-108.6a149.8,149.8,0,0,0-.91-34.08c-20.11,19.4-86.89,81.19-148.45,108.12l-3.6-8.25c70.4-30.8,150.8-111.24,151.61-112l5.32-5.35,2.18,7.23c.2.67,5,16.87,2.86,44.51C1975.69,1552.32,1967.39,1592.42,1938.79,1640.18Z" transform="translate(-1174.47 -612.35)"/><path d="M1407.68,1632.43a3.39,3.39,0,0,1-.77-2.34A2.75,2.75,0,0,1,1408,1628l2-1.6,5.68-4.5,7.51-5.94,7.56-6,5.88-4.65,2.37-1.88a2.72,2.72,0,0,1,2.23-.54,3.26,3.26,0,0,1,2.12,1.26l.63.8,5.78,7.31,4,5.12a3.28,3.28,0,0,1,.74,2.36,2.72,2.72,0,0,1-1,2,2.8,2.8,0,0,1-2.27.59,3.33,3.33,0,0,1-2.13-1.27l-.63-.8-5.78-7.31-2.06-2.61-5.34,4.22-3.71,2.93.51.64,3.12,4,.93,1.17c.31.39.6.8.88,1.21s.53.85.78,1.29a14.15,14.15,0,0,1,1.56,4,15.29,15.29,0,0,1,.34,4.19,17.81,17.81,0,0,1-.27,2,13.76,13.76,0,0,1-.55,2,14.43,14.43,0,0,1-.85,1.88,15.23,15.23,0,0,1-1.06,1.7,12.38,12.38,0,0,1-3.1,2.89c-.58.34-1.17.68-1.77,1a8.4,8.4,0,0,1-1.89.76,17.68,17.68,0,0,1-2.35.47c-.87,0-1.69.07-2.46,0a14.85,14.85,0,0,1-4.06-.86,12.77,12.77,0,0,1-1.93-.86c-.62-.35-1.22-.73-1.81-1.13a14.79,14.79,0,0,1-3.23-3.07l-1.77-2.24Zm19.23-11.14-6.67,5.28-5.88,4.65.38.48,3.16,4,.93,1.17c.31.39.63.77,1,1.14a11.21,11.21,0,0,0,1.79,1.35,5.51,5.51,0,0,0,1,.5c.31.13.65.25,1,.37a10.09,10.09,0,0,0,2.15.38,5.87,5.87,0,0,0,1-.09l1.06-.19a9.71,9.71,0,0,0,2-.77,8.55,8.55,0,0,0,1.68-1.33,9.93,9.93,0,0,0,1.2-1.73,16.3,16.3,0,0,0,.71-2,12.51,12.51,0,0,0,.17-2.21,16.36,16.36,0,0,0-.39-2.12,11.21,11.21,0,0,0-.9-2.06q-.46-.67-1-1.32l-1-1.28Z" transform="translate(-1174.47 -612.35)"/><path d="M1476.88,1645.59a13.23,13.23,0,0,1-.29,4.1,12.39,12.39,0,0,1-1.48,3.73,15.14,15.14,0,0,1-2.64,3.27l-5.1,4.7-7.08,6.54-3.52,3.24a12.3,12.3,0,0,1-2.68,1.88,15.93,15.93,0,0,1-3.06,1.2,7.72,7.72,0,0,1-1.55.27l-1.64.08a11,11,0,0,1-2.49-.2c-.4-.06-.8-.14-1.2-.23s-.8-.2-1.2-.33a19,19,0,0,1-2.31-1,12,12,0,0,1-1.85-1.17,19.21,19.21,0,0,1-1.7-1.47,15.18,15.18,0,0,1-2.82-3.51,16,16,0,0,1-1.56-4,14.56,14.56,0,0,1-.45-4.12,15.45,15.45,0,0,1,.23-2.06,14.49,14.49,0,0,1,.52-2,16,16,0,0,1,.83-1.88,9.73,9.73,0,0,1,1.16-1.71,12.23,12.23,0,0,1,1.58-1.73l4.44-4.11,7.08-6.53,4.36-4a13.07,13.07,0,0,1,6.47-3.25,13.92,13.92,0,0,1,7.44.59,16.53,16.53,0,0,1,2,.85,11.84,11.84,0,0,1,1.84,1.16,16.54,16.54,0,0,1,4.75,5.24,8.71,8.71,0,0,1,.58,1.14c.16.4.33.8.48,1.22a11.91,11.91,0,0,1,.57,2A17.51,17.51,0,0,1,1476.88,1645.59Zm-29.25,22.83a17.2,17.2,0,0,0,2-.4,9.48,9.48,0,0,0,1.9-.92l.78-.72.56-.52,5.55-5.12,7-6.41,2.32-2.14,1.34-1.24a9.29,9.29,0,0,0,1.06-1.81c.1-.34.2-.66.31-1a6.92,6.92,0,0,0,.25-1,8.9,8.9,0,0,0,0-1c0-.36,0-.71-.07-1s-.13-.73-.2-1.06a6.5,6.5,0,0,0-.35-1,11.55,11.55,0,0,0-1-1.94c-.46-.56-1-1.12-1.57-1.7a10.09,10.09,0,0,0-1.85-1.16,5.54,5.54,0,0,0-1-.42c-.32-.11-.67-.2-1-.29s-.68-.1-1-.13a8.69,8.69,0,0,0-1,0,8.45,8.45,0,0,0-1.06.15l-1,.19a6.43,6.43,0,0,0-1,.46q-.43.27-.9.51a5.21,5.21,0,0,0-.67.53l-.67.62-5.51,5.08-7,6.45-2.27,2.1-.74.68a8,8,0,0,0-.7.73c-.18.3-.37.58-.55.84a5.05,5.05,0,0,0-.51.89,10.46,10.46,0,0,0-.31,1q-.12.48-.21,1c0,.34,0,.68,0,1s0,.68,0,1,.13.73.2,1.06a6,6,0,0,0,.35,1,10,10,0,0,0,1,1.93,21.92,21.92,0,0,0,1.57,1.7,11.47,11.47,0,0,0,1.85,1.16,9.9,9.9,0,0,0,2,.72c.34.06.68.11,1,.15A9.2,9.2,0,0,0,1447.63,1668.42Z" transform="translate(-1174.47 -612.35)"/><path d="M1493,1659.05a25.65,25.65,0,0,1,2,2.06,13.82,13.82,0,0,1,1.63,2.34,19.48,19.48,0,0,1,1.71,3.91,14.42,14.42,0,0,1,.65,4.14,16.45,16.45,0,0,1-.39,4.06,12.68,12.68,0,0,1-1.53,3.79c-.39.61-.78,1.2-1.17,1.75a7.77,7.77,0,0,1-1.41,1.52q-.84.69-1.65,1.32A10.25,10.25,0,0,1,1491,1685a19.08,19.08,0,0,1-3.8,1.28,14,14,0,0,1-4.1.32,20.9,20.9,0,0,1-4.21-.82,14.15,14.15,0,0,1-3.87-1.88c-.45-.31-.91-.64-1.37-1s-.88-.69-1.28-1.06l-1.05-1-4-3.76-1,1.06-5.07,5.45-2.06,2.21a2.75,2.75,0,0,1-2.13.9,3.58,3.58,0,0,1-3.39-3.16,2.72,2.72,0,0,1,.74-2.19l1.85-2,4.94-5.3,6.56-7.06,6.57-7,5.07-5.45,2-2.16a2.78,2.78,0,0,1,2.16-.92,3.24,3.24,0,0,1,2.29.93l3.89,3.61Zm-.43,10.44a15,15,0,0,0-.88-2.45,13.45,13.45,0,0,0-1.37-2.22,11.48,11.48,0,0,0-1.28-1.32c-.44-.38-.9-.79-1.36-1.23l-3.49-3.24-4.72,5.07-6.57,7.06-1.5,1.61,0,0,3.73,3.47,1.2,1.12c.4.37.81.72,1.24,1.06s.76.47,1.13.67a10.6,10.6,0,0,0,1.18.54,13.15,13.15,0,0,0,1.26.39l1.25.31c.77,0,1.6,0,2.5,0l1.2-.3c.41-.1.8-.22,1.16-.34a8.78,8.78,0,0,0,2.13-1.29,7.92,7.92,0,0,0,1.72-1.84,8.63,8.63,0,0,0,1.13-2.22,7.44,7.44,0,0,0,.28-1.2c.07-.4.13-.8.19-1.2C1492.7,1671.1,1492.63,1670.26,1492.55,1669.49Z" transform="translate(-1174.47 -612.35)"/><path d="M1526,1689.08a13.33,13.33,0,0,1,.33,4.09,12.84,12.84,0,0,1-.91,3.92,15,15,0,0,1-2.12,3.62l-4.33,5.41-6,7.53-3,3.74a12.34,12.34,0,0,1-2.37,2.25,15.84,15.84,0,0,1-2.84,1.64,6.87,6.87,0,0,1-1.49.5c-.53.12-1.07.23-1.61.33a11.56,11.56,0,0,1-2.5.18c-.4,0-.81,0-1.22,0s-.82-.08-1.24-.14a21.74,21.74,0,0,1-2.43-.66,12.22,12.22,0,0,1-2-.87,19.66,19.66,0,0,1-1.91-1.21,15.16,15.16,0,0,1-3.31-3,15.57,15.57,0,0,1-2.14-3.74,14.63,14.63,0,0,1-1.07-4,16.21,16.21,0,0,1-.08-2.08,14.57,14.57,0,0,1,.22-2,16.51,16.51,0,0,1,.54-2,9.37,9.37,0,0,1,.89-1.87,13.5,13.5,0,0,1,1.3-2l3.78-4.72,6-7.52,3.71-4.63a13,13,0,0,1,5.91-4.18,14,14,0,0,1,7.44-.54,16.46,16.46,0,0,1,2.09.55,12.22,12.22,0,0,1,2,.87,16.55,16.55,0,0,1,5.48,4.47,7.8,7.8,0,0,1,.74,1c.23.37.45.75.66,1.13a11.22,11.22,0,0,1,.86,1.86A17.3,17.3,0,0,1,1526,1689.08Zm-25.5,27a15.65,15.65,0,0,0,2-.7,9.2,9.2,0,0,0,1.73-1.19l.67-.83.48-.59,4.72-5.9,5.91-7.38,2-2.46,1.14-1.43a9.45,9.45,0,0,0,.78-2c0-.35.09-.68.15-1a5.85,5.85,0,0,0,.1-1,7.44,7.44,0,0,0-.13-1c-.06-.35-.14-.69-.22-1s-.24-.7-.36-1a6.33,6.33,0,0,0-.5-1,12,12,0,0,0-1.29-1.76q-.81-.72-1.8-1.44a10.44,10.44,0,0,0-2-.88,7.38,7.38,0,0,0-1-.27l-1.07-.13c-.34,0-.68,0-1,0a8.44,8.44,0,0,0-1,.12,9.58,9.58,0,0,0-1,.31l-1,.34a6.7,6.7,0,0,0-.87.6c-.26.22-.53.43-.81.64a6.81,6.81,0,0,0-.59.62l-.57.71-4.68,5.85-6,7.43-1.93,2.41-.63.79a6.77,6.77,0,0,0-.57.83c-.14.32-.29.62-.43.91a5.87,5.87,0,0,0-.37,1q-.11.57-.15,1c0,.33,0,.68,0,1.05s0,.68.1,1,.12.67.2,1,.24.7.36,1a5.51,5.51,0,0,0,.5,1,9.19,9.19,0,0,0,1.29,1.76,20.08,20.08,0,0,0,1.8,1.45,12.61,12.61,0,0,0,2,.87,10.48,10.48,0,0,0,2.12.41h1A7.18,7.18,0,0,0,1500.53,1716Z" transform="translate(-1174.47 -612.35)"/><path d="M1504.77,1740.44a3.21,3.21,0,0,1-1.37-2,2.83,2.83,0,0,1,.41-2.31l1.34-2,4.15-6.17a2.82,2.82,0,0,1,2-1.24,3.23,3.23,0,0,1,2.36.52l0,0,2.31-.5c.78-.28,1.57-.59,2.34-.93a20.7,20.7,0,0,0,2.25-1.15,20,20,0,0,0,2.11-1.5,18.16,18.16,0,0,0,1.87-1.74,11.58,11.58,0,0,0,1.13-1.44c.36-.52.7-1,1-1.52l4.33-6.42,5.31-7.9,2.6-3.86a2.83,2.83,0,0,1,2-1.25,3.27,3.27,0,0,1,2.41.56l2.09,1.4,8.29,5.58,5.13,3.46a3.15,3.15,0,0,1,1.4,2,2.86,2.86,0,0,1-.44,2.29l-1.33,2-4,5.9-5.31,7.89-5.41,8-4.19,6.23-.14.2,1.3.88a3.27,3.27,0,0,1,1.42,2,2.84,2.84,0,0,1-.4,2.31l-1.34,2-4.15,6.17a2.83,2.83,0,0,1-2,1.25,3.34,3.34,0,0,1-2.41-.56,3.18,3.18,0,0,1-1.39-2,2.83,2.83,0,0,1,.43-2.28l1.34-2,2.49-3.71-4.56-3.08-8.75-5.88-7.78-5.24-.68-.45-3.83,5.69a2.83,2.83,0,0,1-2,1.25A3.28,3.28,0,0,1,1504.77,1740.44Zm24.25-14.36a21,21,0,0,1-6.93,5.06c-.25.13-.51.26-.78.38s-.54.25-.79.38l.39.26,8.75,5.89,4.45,3,3.76-5.6,5.35-7.94,5.38-8,4.19-6.22,0,0-7.67-5.16-2.48-1.67-4.33,6.43-5.1,7.58-1.47,2.19c-.43.63-.86,1.24-1.31,1.82A18.9,18.9,0,0,1,1529,1726.08Z" transform="translate(-1174.47 -612.35)"/><path d="M1552.26,1756.85a2.87,2.87,0,0,1-2.15.86,3.5,3.5,0,0,1-2.31-1,3.05,3.05,0,0,1-1-2.2,2.58,2.58,0,0,1,.88-2.14.23.23,0,0,1,.15-.13l1.53-1.42c.49-.47,1-.95,1.52-1.42,1-.88,2-1.78,3-2.68s2-1.81,3-2.73c1.19-1.12,2.4-2.22,3.63-3.32s2.44-2.19,3.63-3.31l7.08-6.44,2.72-2.45,2.64-2.43c.38-.32.74-.64,1.09-1a12.86,12.86,0,0,1,1.09-1,3.37,3.37,0,0,1,1.77-.82,3.11,3.11,0,0,1,2,.41,3.18,3.18,0,0,1,1.39,1.49,3.33,3.33,0,0,1,.27,2,.23.23,0,0,0,0,.19c-.13.7-.26,1.38-.4,2.05s-.27,1.35-.4,2c-.25,1.3-.5,2.6-.74,3.92s-.49,2.63-.76,4c-.32,1.61-.63,3.21-.93,4.82s-.59,3.23-.87,4.85l-.9,4.7c-.3,1.56-.59,3.12-.89,4.69-.26,1.2-.49,2.39-.71,3.57s-.42,2.38-.64,3.61c-.11.47-.19.93-.27,1.4s-.17.93-.27,1.39a2.53,2.53,0,0,1-1.39,1.87,3.15,3.15,0,0,1-2.38.29,3.44,3.44,0,0,1-2-1.45,3.09,3.09,0,0,1-.46-2.31.25.25,0,0,0,0-.2c.12-.7.26-1.38.4-2s.27-1.35.4-2c.25-1.3.5-2.6.73-3.91s.5-2.64.77-4a1.48,1.48,0,0,1,0-.34l.06-.4-5.94-3.3L1562,1748c-.34.34-.7.68-1.07,1s-.75.67-1.14,1c-.89.85-1.78,1.67-2.69,2.47s-1.8,1.59-2.66,2.41a12.86,12.86,0,0,0-1.09,1C1553,1756.21,1552.64,1756.53,1552.26,1756.85Zm14.61-13.28a.13.13,0,0,1-.07.06.13.13,0,0,0-.08.07l4.88,2.71,2.14,1.19c.08-.44.16-.88.22-1.32s.15-.9.26-1.37c.3-1.57.59-3.13.89-4.69l.9-4.69a.53.53,0,0,1,0-.18.54.54,0,0,0,0-.17l-1.9,1.76c-1.19,1.11-2.4,2.22-3.63,3.31S1568.06,1742.45,1566.87,1743.57Z" transform="translate(-1174.47 -612.35)"/><path d="M1626.6,1752.4l1-2.79a2.78,2.78,0,0,1,1.61-1.71,3.46,3.46,0,0,1,4.36,1.53,2.81,2.81,0,0,1,.19,2.33l-12.13,34.61,0,.05,14.75,5.18,12.16-34.66a2.87,2.87,0,0,1,1.57-1.72,3.17,3.17,0,0,1,2.44-.08,3.27,3.27,0,0,1,1.89,1.6,2.79,2.79,0,0,1,.19,2.34l-12.13,34.6,0,.06,14.75,5.17,12.16-34.66a2.9,2.9,0,0,1,1.57-1.72,3.17,3.17,0,0,1,2.44-.08,3.27,3.27,0,0,1,1.89,1.6,2.79,2.79,0,0,1,.19,2.34l-11.57,33a3.28,3.28,0,0,1,1.16.21,3.17,3.17,0,0,1,1.85,1.58,2.88,2.88,0,0,1,.16,2.33l-.46,1.31-2.48,7.07a2.77,2.77,0,0,1-1.57,1.69,3.23,3.23,0,0,1-2.43,0,3.38,3.38,0,0,1-1.9-1.57,2.76,2.76,0,0,1-.2-2.31l1.3-3.68-26.88-9.43-2.28-.8-3.21-1.12c-1.18-.42-2.37-.84-3.58-1.29s-2.31-.85-3.3-1.19-1.8-.64-2.46-.9l-1-.4a3.34,3.34,0,0,1-1.9-1.56,2.72,2.72,0,0,1-.2-2.31Z" transform="translate(-1174.47 -612.35)"/><path d="M1672.71,1806l0-.18.56-2.2,1.72-6.78,2.36-9.28,2.37-9.34,1.86-7.33.75-2.93a2.86,2.86,0,0,1,1.41-1.85,3.23,3.23,0,0,1,2.43-.29l2,.5,8.76,2.23,3.06.81,3,.81a3.29,3.29,0,0,1,2,1.39,2.73,2.73,0,0,1,.41,2.28,2.8,2.8,0,0,1-1.45,1.84,3.27,3.27,0,0,1-2.46.29l-2.7-.69-6.53-1.66-4.48-1.14-1.53,6-1.68,6.59,7.71,2c1,.26,2,.52,3,.8s2,.53,3,.79a3.33,3.33,0,0,1,2,1.39,2.69,2.69,0,0,1,.4,2.28,2.77,2.77,0,0,1-1.45,1.84,3.24,3.24,0,0,1-2.45.29l-1.39-.35-6.59-1.68-5.73-1.45-1.57,6.16-1.86,7.33-.09.37,7.44,1.89,6.26,1.59a3.29,3.29,0,0,1,2,1.42,2.9,2.9,0,0,1-1.06,4.16,3.31,3.31,0,0,1-2.46.28l-1.31-.33-9.29-2.37c-1-.25-2-.52-3.09-.81s-2.1-.57-3.16-.84a3.22,3.22,0,0,1-2-1.38,2.8,2.8,0,0,1-.37-2.27Z" transform="translate(-1174.47 -612.35)"/><path d="M1732.24,1775.77l5,.93a3.15,3.15,0,0,1,2.07,1.28,2.83,2.83,0,0,1,.51,2.28,2.72,2.72,0,0,1-1.29,1.9,3.17,3.17,0,0,1-2.39.42l-1.47-.27-7.82-1.47-1.29,6.88-1.75,9.35-1.78,9.54-1.38,7.37-.55,3a2.82,2.82,0,0,1-1.33,1.93,3.28,3.28,0,0,1-2.44.44,3.11,3.11,0,0,1-2.07-1.28,2.82,2.82,0,0,1-.51-2.28l.42-2.23,1.28-6.87,1.76-9.42,1.77-9.47,1.39-7.43.13-.68-4.35-.81-4.94-.93a3.21,3.21,0,0,1-2.08-1.25,2.78,2.78,0,0,1-.52-2.25,2.87,2.87,0,0,1,1.3-1.93,3.12,3.12,0,0,1,2.4-.45l1.47.27,8.42,1.58Z" transform="translate(-1174.47 -612.35)"/><path d="M1770.43,1794.29q-1.68,1.73-3.32,3.48c-1.08,1.17-2.17,2.32-3.25,3.47s-2.36,2.46-3.52,3.7-2.33,2.48-3.52,3.71l-6.27,6.72c-.78.81-1.55,1.62-2.32,2.44l-2.32,2.44c-.26.31-.55.63-.86,1l-.92,1a3.86,3.86,0,0,1-.87.76,3.22,3.22,0,0,1-1.18.41,3.81,3.81,0,0,1-1.69-.19,3.36,3.36,0,0,1-1.6-1.28,2.79,2.79,0,0,1-.45-1.86l.28-2.5.78-7.08,1-9.52,1.06-9.64.81-7.39.32-3a2.88,2.88,0,0,1,1.15-2,3.14,3.14,0,0,1,2.36-.63,3.23,3.23,0,0,1,2.2,1.12,2.79,2.79,0,0,1,.71,2.24l-.26,2.44-.79,7.14-1,9.52-1,9.58-.11,1a2.27,2.27,0,0,1,.39-.43,2.62,2.62,0,0,0,.39-.43c1.08-1.15,2.18-2.3,3.28-3.45s2.21-2.31,3.3-3.5l7-7.41c1-1.12,2.09-2.24,3.18-3.36s2.13-2.25,3.17-3.36l2.31-2.41c.78-.8,1.53-1.63,2.26-2.48l.92-.91c.31-.31.59-.61.85-.92a6.68,6.68,0,0,1,.94-.79,2.39,2.39,0,0,1,1.17-.38,3.94,3.94,0,0,1,1.69.19,3,3,0,0,1,1.61,1.25,2.84,2.84,0,0,1,.44,1.89l-.27,2.5-.79,7.21-1,9.51-1,9.59-.82,7.45-.32,2.94a2.86,2.86,0,0,1-1.18,2,3.27,3.27,0,0,1-2.4.62,3.18,3.18,0,0,1-2.17-1.12,2.84,2.84,0,0,1-.67-2.23l.27-2.51.79-7.2,1-9.52,1-9.58.11-.94a2.93,2.93,0,0,0-.42.37A3.73,3.73,0,0,0,1770.43,1794.29Z" transform="translate(-1174.47 -612.35)"/><path d="M1806,1802.63l.22-6.49.26-7.49.11-3a2.78,2.78,0,0,1,1-2.08,3.26,3.26,0,0,1,2.31-.77,3.35,3.35,0,0,1,2.28.93,2.73,2.73,0,0,1,.87,2.14l-.08,2.52-.25,7.18-.34,9.57-.33,9.63-.26,7.5-.11,3a2.84,2.84,0,0,1-1,2.11,3.32,3.32,0,0,1-2.34.8,3.15,3.15,0,0,1-2.25-1,2.88,2.88,0,0,1-.84-2.18l.08-2.52.25-7.17.24-6.74-5.17-.18-10.39-.36-3-.1-.21,5.91-.26,7.5-.1,3a2.81,2.81,0,0,1-1,2.11,3.29,3.29,0,0,1-2.34.8,3.17,3.17,0,0,1-2.24-1,2.85,2.85,0,0,1-.85-2.18l.09-2.51.25-7.18.33-9.57.34-9.64.26-7.49.1-3a2.76,2.76,0,0,1,1-2.08,3.23,3.23,0,0,1,2.3-.77,3.32,3.32,0,0,1,2.28.93,2.69,2.69,0,0,1,.88,2.14l-.09,2.52-.25,7.18-.25,7.3,3,.11,10.39.36Z" transform="translate(-1174.47 -612.35)"/><path d="M1824,1826a2.87,2.87,0,0,1-1.4,1.85,3.51,3.51,0,0,1-2.47.37,3.08,3.08,0,0,1-2-1.35,2.57,2.57,0,0,1-.35-2.29.27.27,0,0,1,.06-.19q.3-1,.57-2l.58-2c.41-1.28.79-2.55,1.16-3.83s.74-2.56,1.15-3.88q.66-2.36,1.4-4.72c.48-1.57.95-3.14,1.39-4.71l2.74-9.18c.36-1.19.72-2.35,1.06-3.5s.68-2.3,1-3.44c.17-.47.31-.94.43-1.4s.26-.94.42-1.41a3.48,3.48,0,0,1,1.1-1.61,3.35,3.35,0,0,1,3.91-.14,3.35,3.35,0,0,1,1.24,1.53.26.26,0,0,0,.08.19c.25.66.49,1.31.72,2s.46,1.29.71,2c.45,1.24.92,2.49,1.39,3.73s.94,2.51,1.4,3.8c.55,1.53,1.12,3.07,1.69,4.6s1.17,3.07,1.77,4.6l1.65,4.48c.55,1.5,1.11,3,1.66,4.48.4,1.16.82,2.31,1.24,3.42l1.32,3.43c.15.45.31.9.49,1.33s.33.88.49,1.34a2.53,2.53,0,0,1-.23,2.31,3.17,3.17,0,0,1-1.88,1.48,3.42,3.42,0,0,1-2.49-.19,3.07,3.07,0,0,1-1.6-1.74.29.29,0,0,0-.07-.19c-.25-.66-.49-1.31-.72-2s-.46-1.29-.71-2c-.46-1.24-.92-2.48-1.4-3.73s-.94-2.51-1.39-3.79a3,3,0,0,1-.15-.31l-.15-.38-6.79.24-5.23.19c-.12.47-.25,1-.39,1.43s-.3,1-.46,1.44c-.32,1.19-.67,2.35-1,3.5s-.72,2.3-1,3.44q-.24.7-.42,1.41C1824.29,1825,1824.14,1825.51,1824,1826Zm5.65-18.93a.13.13,0,0,1,0,.1.12.12,0,0,0,0,.09l5.57-.19,2.45-.09c-.15-.42-.32-.83-.49-1.24s-.34-.85-.49-1.31l-1.65-4.48c-.56-1.49-1.11-3-1.66-4.48a.37.37,0,0,1-.07-.16,1.23,1.23,0,0,0-.08-.15l-.73,2.48q-.66,2.37-1.39,4.72T1829.63,1807.05Z" transform="translate(-1174.47 -612.35)"/><path d="M1895.59,1821.87a3.32,3.32,0,0,1-2.42-.44,2.69,2.69,0,0,1-1.3-1.92l-.44-2.55-1.23-7.13-1.63-9.44-1.65-9.5-1.27-7.39-.52-3a2.76,2.76,0,0,1,.59-2.21,3.22,3.22,0,0,1,2.13-1.26l1-.17,9.18-1.59,6.43-1.11a3.27,3.27,0,0,1,2.43.48,2.77,2.77,0,0,1,1.29,1.88,2.83,2.83,0,0,1-.57,2.27,3.32,3.32,0,0,1-2.13,1.27l-1,.17-9.18,1.59-3.28.56,1.16,6.71.81,4.65.8-.13,5-.86,1.47-.26c.49-.08,1-.14,1.49-.19s1-.06,1.5-.07a13.87,13.87,0,0,1,4.27.54,15.69,15.69,0,0,1,3.85,1.71,19,19,0,0,1,1.66,1.21,12.59,12.59,0,0,1,1.48,1.44,13.15,13.15,0,0,1,1.25,1.64,15.27,15.27,0,0,1,1,1.74,12.72,12.72,0,0,1,1,4.11c0,.67,0,1.35,0,2a8.17,8.17,0,0,1-.24,2,17.1,17.1,0,0,1-.7,2.29c-.37.79-.75,1.52-1.14,2.18a15,15,0,0,1-2.7,3.15,11.64,11.64,0,0,1-1.68,1.28,20,20,0,0,1-1.85,1.06,15.14,15.14,0,0,1-4.25,1.37l-2.81.49Zm-.6-22.21,1.45,8.38,1.28,7.39.6-.1,5-.87,1.47-.26c.49-.08,1-.19,1.46-.31a12.39,12.39,0,0,0,2-.93,7,7,0,0,0,.9-.6c.26-.22.53-.46.8-.72a10.15,10.15,0,0,0,1.37-1.7,7.91,7.91,0,0,0,.42-1c.1-.32.22-.66.34-1a10.13,10.13,0,0,0,.26-2.09,8.89,8.89,0,0,0-.37-2.11,9.44,9.44,0,0,0-.94-1.88,17.28,17.28,0,0,0-1.38-1.56,13.81,13.81,0,0,0-1.86-1.21,18.32,18.32,0,0,0-2-.67,12.46,12.46,0,0,0-2.24-.19c-.54,0-1.08.13-1.62.22l-1.61.28Z" transform="translate(-1174.47 -612.35)"/><path d="M1928.7,1768.87a27.2,27.2,0,0,1,2.81-.52,14.3,14.3,0,0,1,2.85-.08,19.46,19.46,0,0,1,4.2.73,14.39,14.39,0,0,1,3.82,1.73,16.9,16.9,0,0,1,3.18,2.57,12.46,12.46,0,0,1,2.32,3.36c.3.66.57,1.31.82,1.94a8.29,8.29,0,0,1,.49,2c.08.72.14,1.41.19,2.09a10,10,0,0,1-.08,2.1,19.68,19.68,0,0,1-1,3.88,13.94,13.94,0,0,1-2,3.59,20.25,20.25,0,0,1-3,3.07,14,14,0,0,1-3.7,2.19c-.5.21-1,.41-1.56.61a14.5,14.5,0,0,1-1.6.48l-1.39.34-5.35,1.3.35,1.41,1.75,7.22.71,2.94a2.72,2.72,0,0,1-.42,2.28,3.41,3.41,0,0,1-2,1.37,3.35,3.35,0,0,1-2.44-.28,2.7,2.7,0,0,1-1.43-1.83l-.64-2.63-1.71-7-2.27-9.37-2.28-9.36-1.75-7.23-.7-2.88a2.79,2.79,0,0,1,.42-2.3,3.23,3.23,0,0,1,2-1.4l5.16-1.26Zm8.48,6.11a14.85,14.85,0,0,0-2.53-.62,13.71,13.71,0,0,0-2.6-.08,11.17,11.17,0,0,0-1.81.34c-.57.16-1.16.32-1.78.47l-4.62,1.12,1.63,6.74,2.28,9.36.52,2.14h.07l5-1.2,1.59-.39c.53-.13,1-.28,1.57-.45s.82-.38,1.19-.58a9.8,9.8,0,0,0,1.09-.68,10.35,10.35,0,0,0,1-.84c.33-.29.64-.58.94-.87.46-.63.92-1.33,1.39-2.09.14-.38.27-.77.41-1.17s.25-.78.35-1.15a8.72,8.72,0,0,0,.1-2.49,7.93,7.93,0,0,0-.6-2.45,8.57,8.57,0,0,0-1.23-2.17,7.88,7.88,0,0,0-.84-.89l-.9-.82C1938.6,1775.74,1937.87,1775.33,1937.18,1775Z" transform="translate(-1174.47 -612.35)"/><path d="M1979.84,1768q-.84,2.25-1.6,4.53c-.51,1.51-1,3-1.54,4.5s-1.15,3.21-1.7,4.82-1.11,3.22-1.69,4.82l-3,8.71c-.38,1.05-.75,2.11-1.12,3.18s-.74,2.12-1.11,3.17c-.11.39-.24.8-.39,1.22s-.3.84-.46,1.24a3.6,3.6,0,0,1-.48,1,3.24,3.24,0,0,1-.9.86,3.9,3.9,0,0,1-1.62.52,3.48,3.48,0,0,1-2-.51,2.79,2.79,0,0,1-1.17-1.51l-.77-2.4-2.2-6.77-3-9.11-3-9.23-2.29-7.07-.93-2.88a2.86,2.86,0,0,1,.21-2.32,3.15,3.15,0,0,1,1.89-1.54,3.32,3.32,0,0,1,2.48.12,2.84,2.84,0,0,1,1.56,1.75l.76,2.33,2.21,6.84,3,9.11,3,9.17.31,1a2.26,2.26,0,0,1,.17-.56,1.87,1.87,0,0,0,.18-.55q.78-2.24,1.59-4.49c.53-1.5,1.06-3,1.56-4.54l3.32-9.62c.48-1.44,1-2.9,1.51-4.37s1-2.93,1.52-4.36l1.12-3.15c.38-1,.72-2.11,1-3.18l.47-1.22c.15-.4.28-.79.4-1.19a6.13,6.13,0,0,1,.53-1.09,2.41,2.41,0,0,1,.92-.83,3.73,3.73,0,0,1,1.61-.52,2.94,2.94,0,0,1,2,.48,2.9,2.9,0,0,1,1.18,1.54l.78,2.4,2.23,6.89,3,9.11,3,9.17,2.31,7.13.92,2.82a2.82,2.82,0,0,1-.25,2.33,3.27,3.27,0,0,1-1.93,1.55,3.14,3.14,0,0,1-2.43-.14,2.84,2.84,0,0,1-1.54-1.75l-.77-2.4-2.24-6.89-3-9.11-3-9.17-.29-.9a2.94,2.94,0,0,0-.23.51A4.26,4.26,0,0,0,1979.84,1768Z" transform="translate(-1174.47 -612.35)"/><path d="M2006.66,1742.8l4.65-1.92a3.14,3.14,0,0,1,2.44-.05,2.86,2.86,0,0,1,1.67,1.63,2.76,2.76,0,0,1-.05,2.3,3.18,3.18,0,0,1-1.78,1.65l-1.38.57-7.36,3,2.67,6.47,3.62,8.8,3.7,9,2.86,6.94,1.15,2.79a2.8,2.8,0,0,1-.07,2.35,3.25,3.25,0,0,1-1.8,1.69,3.14,3.14,0,0,1-2.44.06,2.88,2.88,0,0,1-1.66-1.64l-.87-2.09-2.66-6.47-3.65-8.85-3.67-8.92-2.88-7-.27-.65-4.08,1.69-4.65,1.92a3.28,3.28,0,0,1-2.44.08,2.76,2.76,0,0,1-1.65-1.61,2.83,2.83,0,0,1,0-2.33,3.18,3.18,0,0,1,1.77-1.68l1.38-.57,7.92-3.26Z" transform="translate(-1174.47 -612.35)"/><path d="M2054,1747.85a9.88,9.88,0,0,1,1.41,1.48c.43.54.84,1.11,1.24,1.7a12.64,12.64,0,0,1,1.57,3.76,18.19,18.19,0,0,1,.48,4.16,14,14,0,0,1-.65,4,17.91,17.91,0,0,1-1.69,3.77,14.27,14.27,0,0,1-2.66,3.37,19.14,19.14,0,0,1-3.49,2.59,16.22,16.22,0,0,1-1.94,1.06l-2,1-6.2,3.1a3.23,3.23,0,0,1-2.47.24,2.78,2.78,0,0,1-1.8-1.49l-1.18-2.37-3.24-6.48-4.27-8.57-4.34-8.68-3.32-6.65-1.35-2.71a2.74,2.74,0,0,1-.09-2.31,3.35,3.35,0,0,1,1.69-1.79,3.3,3.3,0,0,1,2.45-.27,2.69,2.69,0,0,1,1.79,1.46l1.21,2.42,3.24,6.49.9,1.8,2.49-1.25,3.59-1.79a18,18,0,0,1,2.85-1.14,11.81,11.81,0,0,1,2.15-.57,18.77,18.77,0,0,1,2.16-.24,18,18,0,0,1,2.08.06c.68,0,1.38.14,2.1.25a17.13,17.13,0,0,1,3.88,1.37,11.51,11.51,0,0,1,1.79,1C2052.9,1747,2053.43,1747.41,2054,1747.85Zm-2.09,8.3a8.11,8.11,0,0,0-1.13-2.26l-.76-.92a6.05,6.05,0,0,0-.89-.86,7.71,7.71,0,0,0-1-.69l-1-.59a11.63,11.63,0,0,0-2.4-.71,9.69,9.69,0,0,0-1.3-.09c-.43,0-.86,0-1.28,0s-.84.15-1.28.25-.87.21-1.31.34-.9.38-1.3.58l-1.28.64-4.93,2.45.7,1.41,4.31,8.63,3.34,6.71,1-.52,2.74-1.36c.6-.31,1.23-.61,1.87-.9a14.47,14.47,0,0,0,1.81-1c.37-.28.72-.56,1.06-.85a7.5,7.5,0,0,0,.94-.93,11.87,11.87,0,0,0,1.47-2.07,11.06,11.06,0,0,0,.89-2.34c.05-.4.1-.8.16-1.21a9.92,9.92,0,0,0,.07-1.23A8.6,8.6,0,0,0,2051.87,1756.15Z" transform="translate(-1174.47 -612.35)"/><path d="M2067.48,1760.05l-.09-.16-1.15-2-3.52-6-4.81-8.28-4.86-8.33-3.8-6.53-1.52-2.61a2.9,2.9,0,0,1-.29-2.32,3.2,3.2,0,0,1,1.53-1.91l1.76-1,7.81-4.55c.9-.53,1.82-1,2.75-1.57s1.85-1,2.75-1.56a3.32,3.32,0,0,1,2.42-.43,2.7,2.7,0,0,1,1.89,1.35,2.79,2.79,0,0,1,.25,2.33,3.27,3.27,0,0,1-1.55,1.92l-2.41,1.4-5.81,3.39-4,2.33,3.14,5.39,3.42,5.88,6.88-4c.9-.52,1.79-1,2.69-1.52l2.69-1.53a3.32,3.32,0,0,1,2.42-.43,2.74,2.74,0,0,1,1.89,1.34,2.83,2.83,0,0,1,.25,2.33,3.29,3.29,0,0,1-1.55,1.93l-1.24.72-5.87,3.42-5.11,3,3.2,5.5,3.81,6.54.19.32,6.63-3.86,5.59-3.25a3.29,3.29,0,0,1,2.44-.41,2.89,2.89,0,0,1,2.15,3.71,3.24,3.24,0,0,1-1.55,1.92l-1.18.69-8.28,4.82-2.78,1.58c-.95.53-1.89,1.07-2.83,1.62a3.28,3.28,0,0,1-2.4.41,2.76,2.76,0,0,1-1.85-1.36Z" transform="translate(-1174.47 -612.35)"/><path d="M2098.19,1694a3.35,3.35,0,0,1-.22-.34,3.54,3.54,0,0,0-.23-.35,3.21,3.21,0,0,1,.82-3.36,4.07,4.07,0,0,1,1.05-.75,3.46,3.46,0,0,1,1.19-.3,1.94,1.94,0,0,1,1.16.21c.73.34,1.44.69,2.13,1.06s1.4.71,2.12,1l8.46,4.17,3.45,1.74c1.14.58,2.32,1.16,3.54,1.75-.12-.44-.23-.87-.34-1.3s-.18-.86-.24-1.3c-.37-1.57-.72-3.12-1.06-4.65s-.69-3.08-1.06-4.65l-1.56-7a27.27,27.27,0,0,1-.65-2.69,2.5,2.5,0,0,1,.12-1.22,3.61,3.61,0,0,1,.57-1.09,3.25,3.25,0,0,1,2.12-1.26,2.72,2.72,0,0,1,2.27.46,2.58,2.58,0,0,1,1,1.29,2.1,2.1,0,0,0,.09.33l.12.38a.54.54,0,0,0,.07.35.64.64,0,0,1,.06.36c.2.85.4,1.68.58,2.5s.38,1.65.58,2.51c.28,1.38.59,2.76.92,4.13s.64,2.76.95,4.18q.54,2.46,1.11,4.89c.38,1.62.74,3.24,1.08,4.84s.73,3.13,1.06,4.65.69,3.08,1.07,4.66l1.56,6.94c.08.47.18.93.3,1.37s.21.9.29,1.37a2.46,2.46,0,0,1-.09,1.19,3,3,0,0,1-.55,1.07,3.06,3.06,0,0,1-2.17,1.31,2.76,2.76,0,0,1-2.27-.46,3.21,3.21,0,0,1-1-1.24.89.89,0,0,0-.1-.41.94.94,0,0,1-.1-.4,1.93,1.93,0,0,0-.08-.33,1.38,1.38,0,0,1-.09-.33c-.18-.82-.36-1.65-.54-2.5s-.37-1.7-.58-2.55c-.27-1.23-.55-2.47-.84-3.71s-.57-2.5-.87-3.76l-1.78-.89c-.61-.29-1.2-.59-1.78-.88l-8.46-4.17c-1.35-.7-2.72-1.39-4.09-2.07s-2.76-1.36-4.15-2l-1.83-1c-.62-.31-1.25-.62-1.89-.92A2.72,2.72,0,0,1,2098.19,1694Z" transform="translate(-1174.47 -612.35)"/><path d="M2152.63,1677.93c.19,1.14.41,2.27.67,3.38s.49,2.22.71,3.32c.3,1.61.63,3.2,1,4.79s.68,3.18,1,4.78c.18.81.35,1.59.51,2.36s.31,1.58.46,2.41a2.88,2.88,0,0,1-.49,2.33,3.35,3.35,0,0,1-2,1.45,2.89,2.89,0,0,1-2.34-.33,2.66,2.66,0,0,1-1.29-1.9.82.82,0,0,0-.06-.37.79.79,0,0,1-.07-.37c-.27-1.23-.53-2.46-.77-3.69s-.5-2.47-.78-3.7q-.51-2.36-1-4.74t-1-4.83a13.75,13.75,0,0,1-.35-1.48c-.08-.5-.18-1-.29-1.53l-6.52-2q-2.31-.7-4.67-1.4l-4.66-1.4-4.62-1.4a2.9,2.9,0,0,1-1.76-1.46,2.82,2.82,0,0,1-.17-2.33,3.36,3.36,0,0,1,1.61-1.91,2.87,2.87,0,0,1,2.37-.3c1,.31,2,.61,3.13.89,1.47.46,3,.91,4.43,1.35s3,.88,4.44,1.35,2.81.82,4.16,1.25,2.75.86,4.17,1.26l.14,0-.69-3.35c-.24-1.13-.47-2.24-.69-3.35-.31-1.61-.64-3.2-1-4.79s-.68-3.18-1-4.79l-1-4.71a3.16,3.16,0,0,1,.53-2.38,3.4,3.4,0,0,1,2-1.45,2.84,2.84,0,0,1,2.32.35,3,3,0,0,1,1.31,1.88,3,3,0,0,0,.08.39,1.87,1.87,0,0,1,.09.39l1.51,7.35q.51,2.37,1,4.74t1,4.83a13.68,13.68,0,0,1,.34,1.48q.13.75.3,1.53l6.52,2q2.36.75,4.69,1.43c1.56.45,3.1.9,4.64,1.37l4.62,1.4a2.93,2.93,0,0,1,1.76,1.46,2.82,2.82,0,0,1,.17,2.33,3.4,3.4,0,0,1-1.61,1.91,3.16,3.16,0,0,1-2.42.35l-1.54-.47-1.54-.47c-1.48-.46-2.95-.91-4.43-1.35s-3-.88-4.44-1.35-2.81-.82-4.17-1.25-2.74-.86-4.16-1.26Z" transform="translate(-1174.47 -612.35)"/><path d="M2167.26,1628.47a13.17,13.17,0,0,1,4.11,0,12.65,12.65,0,0,1,3.84,1.18,14.92,14.92,0,0,1,3.47,2.38l5.09,4.71,7.07,6.54,3.52,3.25a12.42,12.42,0,0,1,2.08,2.53,16,16,0,0,1,1.43,3,6.94,6.94,0,0,1,.4,1.52c.08.53.15,1.08.21,1.63a11.61,11.61,0,0,1,0,2.5c0,.41-.08.81-.14,1.22s-.14.81-.23,1.22a18.57,18.57,0,0,1-.83,2.38,11.09,11.09,0,0,1-1,1.93,18.88,18.88,0,0,1-1.34,1.82,15.19,15.19,0,0,1-3.28,3.08,15.65,15.65,0,0,1-3.88,1.88,15.15,15.15,0,0,1-4.07.77,14.49,14.49,0,0,1-4.06-.42,17.68,17.68,0,0,1-1.94-.69,9.36,9.36,0,0,1-1.81-1,13.68,13.68,0,0,1-1.85-1.43l-4.44-4.11-7.07-6.54-4.35-4a13,13,0,0,1-3.75-6.19,13.93,13.93,0,0,1,0-7.47,15.3,15.3,0,0,1,.69-2,11.55,11.55,0,0,1,1-1.94,14.75,14.75,0,0,1,2.82-3.5,14.36,14.36,0,0,1,2-1.64,8,8,0,0,1,1.09-.67q.57-.3,1.17-.57a12,12,0,0,1,1.92-.73A18,18,0,0,1,2167.26,1628.47Zm25.07,27.35a16.94,16.94,0,0,0-.55-2,10,10,0,0,0-1.07-1.82l-.78-.73-.56-.51-5.55-5.13-6.94-6.42-2.31-2.14-1.34-1.24a9.48,9.48,0,0,0-1.9-.92c-.33-.07-.67-.14-1-.23a6.45,6.45,0,0,0-1-.17,6.17,6.17,0,0,0-1,.06c-.35,0-.7.09-1,.15s-.71.18-1,.28a6.91,6.91,0,0,0-1,.43,12.73,12.73,0,0,0-1.85,1.16c-.52.51-1,1.07-1.57,1.7a9.68,9.68,0,0,0-1,1.93,5.61,5.61,0,0,0-.35,1c-.08.33-.15.69-.21,1.06s0,.69,0,1a8.54,8.54,0,0,0,.05,1,8.09,8.09,0,0,0,.23,1.05c.09.33.18.67.28,1a5.42,5.42,0,0,0,.53.91c.2.28.39.56.58.86a4.3,4.3,0,0,0,.58.62c.2.19.42.4.67.62l5.5,5.09,7,6.46,2.27,2.1.74.68a7.79,7.79,0,0,0,.78.64c.31.16.61.32.88.49a6.69,6.69,0,0,0,.93.44c.37.09.71.17,1,.22l1,.13c.34,0,.68,0,1,0a8.86,8.86,0,0,0,1-.12c.37-.09.72-.19,1-.29a5.86,5.86,0,0,0,1-.42,10.52,10.52,0,0,0,1.85-1.17,20.05,20.05,0,0,0,1.57-1.69,12.39,12.39,0,0,0,1-1.94,11.28,11.28,0,0,0,.55-2.08c0-.34.05-.69.07-1A9.08,9.08,0,0,0,2192.33,1655.82Z" transform="translate(-1174.47 -612.35)"/><path d="M2217.06,1653.21a3.2,3.2,0,0,1-2.07,1.23,2.81,2.81,0,0,1-2.28-.56l-1.89-1.46-5.87-4.56a2.81,2.81,0,0,1-1.11-2.07,3.16,3.16,0,0,1,.68-2.31l0,0-.34-2.33c-.23-.81-.48-1.61-.77-2.41a23.77,23.77,0,0,0-1-2.32,19.83,19.83,0,0,0-1.36-2.21,19.07,19.07,0,0,0-1.61-2,12.46,12.46,0,0,0-1.36-1.23c-.5-.38-1-.75-1.44-1.12l-6.13-4.75-7.51-5.83-3.69-2.85a2.86,2.86,0,0,1-1.11-2.07,3.34,3.34,0,0,1,.72-2.37l1.54-2,6.13-7.9,3.79-4.89a3.24,3.24,0,0,1,2.1-1.26,2.85,2.85,0,0,1,2.25.59l1.89,1.47,5.63,4.36,7.51,5.83,7.67,6,5.92,4.59.2.16,1-1.24a3.3,3.3,0,0,1,2.11-1.28,2.8,2.8,0,0,1,2.28.56l1.89,1.46,5.88,4.56a2.82,2.82,0,0,1,1.11,2.06,3.32,3.32,0,0,1-.72,2.37,3.16,3.16,0,0,1-2.1,1.26,2.84,2.84,0,0,1-2.25-.59l-1.89-1.46-3.54-2.75-3.37,4.36-6.46,8.32-5.75,7.42-.5.64,5.42,4.21a2.76,2.76,0,0,1,1.11,2.06A3.23,3.23,0,0,1,2217.06,1653.21Zm-12.69-25.16a21,21,0,0,1,4.58,7.25c.11.26.22.54.33.82s.21.54.32.81l.29-.38,6.46-8.32,3.29-4.25-5.32-4.13-7.57-5.87-7.62-5.91-5.92-4.59-.05,0-5.67,7.3-1.83,2.37,6.12,4.75,7.22,5.6,2.09,1.62c.6.46,1.17.94,1.73,1.42A17.44,17.44,0,0,1,2204.37,1628.05Z" transform="translate(-1174.47 -612.35)"/></g><g id="Слой_4" data-name="Слой 4"><path class="cls-6" d="M1740.14,834.37l-76,14s-30,30-6,116h-26l-6,16,2,50s20-66,38-66l25.33,4.66,14-8,40.67,11.34,22-10.67,21.33,10s-22.67,15.33-21.33,22.67a67,67,0,0,1,1.33,10L1784.8,1023l-.66-34,26.66-25.33,32,6,32.67-9.33,42,10,36-8,10,4,38,61.33L2008.8,977l-19.33-18.66L1958.14,957l8-31.33-10.67-32-24.67-35.33-44-35.34-22-8.66-12,1.33L1824.14,795l-19.34,16-19.33-6.66Z" transform="translate(-1174.47 -612.35)"/><path class="cls-6" d="M1622.14,1181.37l16,23s2-41,13-55c0,0,6,56,58,67s81,8,81,8l13,11-3,32-4,9,24-1-10-19,6-23,12-9s24,2,36,0,67-4,85-41,12-43,12-43,17,26,16,45-3,22-3,22l18-25,2,167s12,98,31,109c0,0-194,116-362,31l-26-28-18-56Z" transform="translate(-1174.47 -612.35)"/><path class="cls-6" d="M1680.14,1062.37s30-55,66-24C1746.14,1038.37,1725.14,988.37,1680.14,1062.37Z" transform="translate(-1174.47 -612.35)"/><path class="cls-6" d="M1853.14,1110.37s21,7,29,4,30-15,30-15l35-27-80,38Z" transform="translate(-1174.47 -612.35)"/></g><g id="Слой_6" data-name="Слой 6"><path class="cls-5" d="M1775.14,1228.37s-24,16-13,26,29,2,29,2-2,27-22,30-130-4-130-105l10-34S1652.14,1221.37,1775.14,1228.37Z" transform="translate(-1174.47 -612.35)"/><path class="cls-5" d="M1811.14,1254.37s13-2,24-17c0,0,22,1,26-9,0,0,100-10,100-80,0,0,15,12,15,33s-15,91-92,99S1811.14,1254.37,1811.14,1254.37Z" transform="translate(-1174.47 -612.35)"/><path class="cls-5" d="M1954.14,1257.37s-43,45-12,137l-20-10,14,35-25-11,14,30s-279,78-286-29c-9.05-138.23,3-201,3-201s24,56,53,65,83,13,83,13l18-8h32S1885.14,1320.37,1954.14,1257.37Z" transform="translate(-1174.47 -612.35)"/><path class="cls-5" d="M1645.14,885.37s5,69,35,47c0,0,22,14,36,0,0,0,38,15,61,4,0,0,39,14,62,6,0,0,36,7,46-3,0,0,37-2,26-32,0,0-56-27-64-51s31-26,83,51l22-11s-42-92-97-84l-13,24s-36-28-42,9c0,0-28-15-36,14,0,0-29-10-30,15,0,0-29-28-39,6,0,0-16-13-28,4C1667.14,884.37,1661.14,861.37,1645.14,885.37Z" transform="translate(-1174.47 -612.35)"/><polygon class="cls-5" points="708.67 488.01 727.67 493.01 738.67 484.01 725.67 480.01 708.67 488.01"/></g><g id="Слой_5" data-name="Слой 5"><path class="cls-7" d="M1712.47,1318.94s27.67-6.57,50.67,14.43c0,0,32-22,56,14,0,0-29.25,26.16-71.17,20.57C1718,1363.94,1712.47,1318.94,1712.47,1318.94Z" transform="translate(-1174.47 -612.35)"/><path d="M1709.14,1282.37l20,4,1,21h117v-19h38l-61,55s-40-26-56-16l-9,2s-35.17-18.93-46.17-4.93Z" transform="translate(-1174.47 -612.35)"/><path class="cls-1" d="M1729.14,1286.37l1,21,7,4h110v-23l-32-15-6,6-20-2S1758.14,1299.37,1729.14,1286.37Z" transform="translate(-1174.47 -612.35)"/><path class="cls-8" d="M1759,1330.94s-31.5-8-23,9.5,38,15,38,15" transform="translate(-1174.47 -612.35)"/></g><g id="Слой_10" data-name="Слой 10"><path class="cls-1" d="M1688.22,1166.94s12.19,19.55,35.19,19,33.81-19.18,33.81-19.18S1728.22,1136.94,1688.22,1166.94Z" transform="translate(-1174.47 -612.35)"/><path class="cls-1" d="M1863.91,1160.37s9.81,26.44,38,27c23,.45,34.5-26,34.5-26S1903.41,1145.87,1863.91,1160.37Z" transform="translate(-1174.47 -612.35)"/></g><g id="Слой_3" data-name="Слой 3"><path d="M1958.17,964.24l-4.7-1.88-1.46.33a10,10,0,0,0,4.93,2.71,9.51,9.51,0,0,0,4.18,0Zm75.4,489.29c-1.17-.89-12.11-9.89-21.26-43.18-5.74-20.87-11.47-54.23-12.65-105.74h0c0-.69,0-1.39,0-2.1,0-.21,0-.42,0-.63h0c-.35-18.62-.11-39.56.92-63.1,0-.33,0-.66,0-1,.08-1.83.17-3.68.26-5.54.07-1.31.13-2.63.2-4q.68-12.87,1.67-26.75l1.39-22.81v-.26h0l.19-3.07,11-180.7a43.32,43.32,0,0,0-13.19-33.88A42.58,42.58,0,0,0,1968.35,949l-.61.06c6.9-16.51,8.27-30.86,4.08-42.76a34.64,34.64,0,0,0-14.35-18.22,350.43,350.43,0,0,0-21.58-31c-17.4-22.06-34.53-36.75-51.15-43.83-.94-.4-1.87-.77-2.77-1.1h0c-10.93-4.1-19.2-3.85-24.25-2.92-15.45-15.18-29.5-21.43-41.81-18.58-8.63,2-14.21,8-17.52,13.13-8.64-4.25-16.65-5.07-23.92-2.4a27.4,27.4,0,0,0-12,8.92,36.62,36.62,0,0,0-4.38,6.93c-12.08-.68-21,7-26.55,14.92a21.67,21.67,0,0,0-9.17-3c-10.12-1-19.4,5.09-24.21,9a10.65,10.65,0,0,0-2.7.24,12.78,12.78,0,0,0-3.78,1.51,27.33,27.33,0,0,0-24,1.48c-13.86,8-23.06,19.54-27.35,34.15a66.31,66.31,0,0,0-2.22,10.93h0a88.39,88.39,0,0,0,.09,20.93c2,17.12,8.08,33.43,12.85,44.13-9.59-.28-17.63,2.14-24,7.21-12.15,9.7-12.78,25.42-12.8,26.08v204.62l-.55,38.9s0,0,0,0l0,3.47-.08,5.77v.88l-.87,61.86,0,1v1l-1.23,87.3a144.14,144.14,0,0,0,14.66,65.86A129.66,129.66,0,0,0,1647,1486a122.09,122.09,0,0,0,9.7,9.38l1,.81a124.37,124.37,0,0,0,40.07,22.59h0c1.25.45,2.53.87,3.82,1.27a149.38,149.38,0,0,0,14.67,3.8,224.24,224.24,0,0,0,27.25,3.79c8.2.66,16.71,1,25.44,1,59.09,0,128.34-14.39,184.38-31.52l2.48-.76,2.6-.82h0q7-2.16,13.59-4.39l1.36-.45q5.54-1.87,10.82-3.74h0c19.44-6.9,36.19-13.87,48.91-20.23l13.94-6.51ZM1961,1479c-73,23.76-174.16,44.06-241.74,30.11a121.34,121.34,0,0,1-38.63-14.76c-17.56-10.61-31.32-25.83-41.1-45.54a129.08,129.08,0,0,1-13.1-59l1.22-87v0l.66-46.33v0l.91-65v-.12l0-1.8V985.23c.07-1,.85-9.83,7.25-14.86,4.25-3.34,10.38-4.53,18.26-3.54l.36,0q1.59.21,3.27.54l.58.1a9.58,9.58,0,0,0,2.07,0,9.41,9.41,0,0,0,6.16-3l0,0h0a9.6,9.6,0,0,0,2.24-8.85,10.18,10.18,0,0,0-.77-2l-.12-.25-.07-.11a171.21,171.21,0,0,1-9.14-21.4h0a125.28,125.28,0,0,1-6.29-26.25q-2.11-18.07,3.49-31a40.23,40.23,0,0,1,4.23-7.53,44.2,44.2,0,0,1,14.33-12.77,3.84,3.84,0,0,1,.4-.21,12.38,12.38,0,0,1,12.79.89l.14.09L1691,857l.29.2,3.65,2.61,3-4.8.48-.76.67.44,2,1.32,1.27-1.25h0l1.29-1.28,1.77-1.75c2.18-2.15,9.73-8.16,15.54-7.59,1.42.14,3.55.71,5.9,3.93.14.18.27.36.4.56l1.41,2.07,6.7,9.88,3.24-8.56v0l1.86-4.93c0-.13.29-.75.72-1.67,1.79-3.81,6.85-12.72,15.16-13a13,13,0,0,1,4.29.57l7.13,2.14.25.08,2-7.44c0-.1,2.9-9.7,9.58-12.15,4.74-1.74,10.59.66,15.29,3.53.81.49,1.58,1,2.31,1.5l8.25,5.69.09.06,3.06-9.66c0-.08,2.06-5.93,6.46-9.27a11.12,11.12,0,0,1,4.2-2c3.29-.76,7.27,0,11.78,2.32s9.83,6.25,15.38,11.61c1.06,1,2.14,2.1,3.22,3.23l.38.39,2.1,4.16,1.77-1.12h0l4.55-2.87c1.51-.53,20.59-5.43,51.9,27.37,10.35,10.84,22.05,25.81,34.88,46.43l.51.82.9,1.45.31.51,2.11.94c.06,0,5.84,2.9,8.59,10.73s1.69,18.09-3,30.14c0,0,0,0,0,0-1.12,2.88-2.45,5.87-4,8.94h0c-.12.25-.25.49-.38.75a10,10,0,0,0-.38,8.23,9.09,9.09,0,0,0,.88,1.73c.17.26.35.51.54.76a9.74,9.74,0,0,0,.74.83,10,10,0,0,0,4.93,2.71,9.51,9.51,0,0,0,4.18,0h0l.31-.06c.74-.18,1.48-.35,2.23-.5a60,60,0,0,1,6.14-.94,22.48,22.48,0,0,1,2.31-.12h.36a27.68,27.68,0,0,1,19.19,7.8,28.33,28.33,0,0,1,8.64,22.17l-.35,5.75-.29,4.8h0l-1.14,18.63h0l-1.07,17.61h0l-8.93,146.79h0l-.31,5.08s0,0,0,0l-.48,7.83v.18q-3.72,51.68-3.29,94.52h0c.49,51,5.38,92.4,14.64,123.65,6,20.09,12.72,32.07,18,39A547.9,547.9,0,0,1,1961,1479Zm-2.81-514.77-4.7-1.88-1.46.33a10,10,0,0,0,4.93,2.71,9.51,9.51,0,0,0,4.18,0Z" transform="translate(-1174.47 -612.35)"/><path d="M1753.14,1293.37c-10.44,0-30.39-3.62-52.26-13.8-16.82-7.83-39.86-22-54.08-45.27-18.08-29.53-17-64.6,3.26-104.24a5.87,5.87,0,0,1,11,3.48c-2.32,16.59-3.37,57,37,74.23,35.29,15,64,14.55,78,12.93h0a30,30,0,0,1,24.09,8,28.67,28.67,0,0,1,9,22.56c0,.54-.07,1.09-.13,1.64C1807.52,1268,1798.13,1293.37,1753.14,1293.37ZM1650.57,1154c-10,28.36-8.45,53.56,4.76,75.13,23.19,37.89,76,54.29,97.81,54.29,27.94,0,43.85-10.9,46-31.53,0-.39.08-.78.1-1.17a18.5,18.5,0,0,0-5.92-14.71,20,20,0,0,0-16.08-5.33h0c-15,1.74-45.67,2.27-83.08-13.66C1661,1202.84,1652.18,1174.8,1650.57,1154Z" transform="translate(-1174.47 -612.35)"/><path d="M1861.24,1293.37c-45,0-54.38-25.36-56-40.48-.06-.55-.1-1.1-.13-1.64a28.67,28.67,0,0,1,9-22.56,30,30,0,0,1,24.09-8h0c14,1.62,42.72,2.1,78-12.93,40.36-17.19,39.31-57.64,37-74.23a5.87,5.87,0,0,1,11-3.48c20.25,39.64,21.34,74.71,3.26,104.24-14.22,23.23-37.26,37.44-54.08,45.27C1891.63,1289.75,1871.68,1293.37,1861.24,1293.37Zm-26.45-62.87A20,20,0,0,0,1821,1236a18.5,18.5,0,0,0-5.92,14.71c0,.38.05.78.1,1.17,2.17,20.63,18.08,31.53,46,31.53,21.82,0,74.62-16.4,97.81-54.29,13.21-21.57,14.79-46.77,4.76-75.13-1.61,20.85-10.44,48.89-43.61,63-37.41,15.93-68.11,15.4-83.08,13.66A20.34,20.34,0,0,0,1834.79,1230.5Z" transform="translate(-1174.47 -612.35)"/><path d="M1919.28,979.7a76.14,76.14,0,0,1-15.79-1.74,105.54,105.54,0,0,1-27.69-10.44c-26.46,12-47.13,5.31-55.62,1.35a57.27,57.27,0,0,1-51.37.07c-26.45,13.57-51.83,4.84-62,.2-9.83,6.7-19.48,9.22-28.76,7.51-14.62-2.69-22.21-15.16-22.52-15.69l6.44-3.84,6.41-3.9c0,.08,4.61,7.32,12.52,8.7,6,1.06,13-1.44,20.53-7.44l2.16-2.61,8,4.5c1.11.65,26.36,13.62,53.32-2.45l3.84-1.22,4.16,1.43c.8.52,16.68,9.74,38.84-1.26l3.34-.84,9,4c.77.49,19.42,10.66,47.5-3.66l-.67,3.16,1.67-3.5c.1.07,19.46,8.24,34.36,11.34,18.6,3.85,33.45-.72,44.13-13.59l11.55,9.57C1951.52,972.81,1936.71,979.7,1919.28,979.7Z" transform="translate(-1174.47 -612.35)"/><path d="M1628.76,1054.39l-9.91-1.38c9.52-68.69,43-93,44.4-94.06l5.77,8.17-2.88-4.09,2.9,4.07C1668.73,967.33,1637.63,990.35,1628.76,1054.39Z" transform="translate(-1174.47 -612.35)"/><path d="M1995.14,1073.78c-1.28-84.33-40.62-110.27-41-110.52l5.36-8.45c1.81,1.15,44.3,29.15,45.66,118.81Z" transform="translate(-1174.47 -612.35)"/><path d="M1815.88,961.82a6.24,6.24,0,0,0-7-3.46h0a4.63,4.63,0,0,0-.61.17l-1.38.48a111.07,111.07,0,0,0-21.8,10.64c-1.68,1.08-3.35,2.24-5,3.48-7.91,6-14.65,13.9-15.77,23.54-1.5,12.9,7.45,25.44,26.61,37.26a5.54,5.54,0,0,0,2.93.83,5.61,5.61,0,0,0,4.36-2.06,5.55,5.55,0,0,0-.26-7.37c-4.45-4.73-11.68-14.35-10.13-25.66,1.26-9.12,7.92-17.91,19.85-26.21,1.79-1.24,3.7-2.48,5.73-3.7a6.17,6.17,0,0,0,2.36-2.56,6.24,6.24,0,0,0,.59-1.94,4,4,0,0,0,0-.5,3.64,3.64,0,0,0,0-.66h0A6.16,6.16,0,0,0,1815.88,961.82Zm-31.87,21a37.12,37.12,0,0,0-6,15.51,33.86,33.86,0,0,0,.56,12.22c-3-4-4.75-8.28-4.24-12.69C1774.92,992.3,1778.8,987.2,1784,982.79Z" transform="translate(-1174.47 -612.35)"/><path d="M1681.31,1066.68l-5.23-2.89c.85-1.88,21.2-45.67,47.44-45.67h.36c14.44.22,27.34,13.59,38.35,39.74l-5.49,2.4c-.12-.26-11.93-25.79-31.32-27.28C1711.49,1031.93,1696.65,1043.25,1681.31,1066.68Zm42.2-42.56c-6.39,0-12.54,3.41-18.07,8.28,6.87-4.11,13.71-5.91,20.47-5.39a31.66,31.66,0,0,1,12.48,3.75c-4.71-4.34-9.59-6.56-14.6-6.63Z" transform="translate(-1174.47 -612.35)"/><path d="M1873,1117.47a32.3,32.3,0,0,1-15.59-3.8h0a14.12,14.12,0,0,1-8-2.74,11.83,11.83,0,0,1-4.16-5.73l5.77-1.65-2.88.83,2.87-.87c.21.66,2.39,6.34,13,3.32,3.46-1,12-5.51,21.82-10.73,39-20.7,74.87-38.07,84.82-23.41l-4.68,3.73a.75.75,0,0,0,.16.15c-.09-.07-9.54-6.83-46.76,20.15C1917.26,1098.53,1895,1117.47,1873,1117.47Zm-3.72-6.24c21.25,2.61,46-18.86,46.24-19.11l.22-.18a200.21,200.21,0,0,1,21.08-13.6c-16.44,6.21-35.92,16.54-48.18,23.05C1880.29,1105.8,1873.71,1109.29,1869.25,1111.23Z" transform="translate(-1174.47 -612.35)"/><path d="M1766.75,962.51c-35.41-10.19-59.13-27.34-70.52-51-15.13-31.44-2.59-62.43-2-63.74l9.23,3.84-4.62-1.92,4.62,1.91c-.11.28-11.35,28.33,1.88,55.68,10.11,20.92,31.72,36.26,64.22,45.61Z" transform="translate(-1174.47 -612.35)"/><path d="M1722.48,972c-23.51-1.51-52.87-37.89-59.26-73.43-6.53-36.24,25.55-56.92,26.92-57.79l5.33,8.46L1692.8,845l2.68,4.23c-1.14.72-27.74,18-22.42,47.55,2.69,15,10.29,31.19,20.82,44.45,9.92,12.47,20.85,20.24,29.25,20.78Z" transform="translate(-1174.47 -612.35)"/><path d="M1817.88,964.83c-47.15-23.86-76.09-52.23-86-84.32-7.61-24.6-.65-42-.35-42.72l9.26,3.79c-.06.16-6,15.34.87,36.69,9.19,28.71,37.12,55.56,80.75,77.64Z" transform="translate(-1174.47 -612.35)"/><path d="M1874.18,963.63c-59-25.13-96.56-55.94-111.57-91.57-11.53-27.38-4.82-47.19-4.52-48l12.05,2.66c-.06.17-8.38,18.23,2,42.25,9.77,22.58,36.09,55.74,105.94,85.48Z" transform="translate(-1174.47 -612.35)"/><path d="M1929.9,952.29q-12.18,0-28.77-5.88c-52.17-18.52-86-44.18-100.49-76.27-14.09-31.17-4.24-56.56-3.81-57.63l12.64-.14c-.08.21-12,26.65.39,53.9,13.42,29.4,45.25,53.19,94.62,70.72,13.67,4.85,31.8,8.85,40.52.33,7-6.85,6.76-20.43,5-30.89a25.82,25.82,0,0,1-11.62,5.71c-11.59,2.61-27.52-.44-44.85-8.59-16.43-7.73-31.93-19.11-42.53-31.22-10.25-11.72-14.71-23.36-13.24-34.62,2-15.3,14.35-23.8,14.87-24.15l5.6,8.29-2.8-4.15,2.81,4.13c-.09.07-9.23,6.47-10.58,17.28-1,8.25,2.62,17.21,10.87,26.63,20.34,23.25,58.08,41.06,77.65,36.64,5.94-1.34,9.57-4.62,11.1-10l-.52-16,10.08,15.76c.49,1.46,11.72,36.08-4.87,52.32C1946.67,949.68,1939.28,952.29,1929.9,952.29Z" transform="translate(-1174.47 -612.35)"/><path d="M1607.07,1307.83c-6.83,0-12.6-2.06-17.22-6.17-12.46-11.08-11.73-33.76-11-42-15.15-11.7-32.24-33.89-36.07-57.49-2.3-14.15.58-27.21,8.32-37.77,5.37-7.31,12.35-11.26,20.77-11.72,24.57-1.35,52.76,29,54,30.3l-7.36,6.76h0c-7.21-7.84-29.54-28-46-27.08-5.35.3-9.69,2.8-13.24,7.65-6.21,8.47-8.4,18.65-6.52,30.25,3.41,21,19.88,42.45,34.38,52.72l2.5,1.77-.45,3c-1,7.28-1.75,28,7.42,36.1,4.39,3.89,10.71,4.66,19.34,2.35l2.59,9.66A44,44,0,0,1,1607.07,1307.83Z" transform="translate(-1174.47 -612.35)"/><path d="M1597.83,1258.52c-4.53-12.94-4.56-20.73-.11-24.52,3.44-2.92,8.62-2.75,15.77.54-12.19-19.75-24.37-31.6-32.9-31.88a5.33,5.33,0,0,0-4.07,1.64,5.14,5.14,0,0,0-1.43,4c.28,3.86,2.65,10.2,12.31,18.41l-4.53,5.33c-9.24-7.85-14.21-15.67-14.76-23.23a12.2,12.2,0,0,1,3.36-9.35,12.4,12.4,0,0,1,9.36-3.79c15,.51,30.37,21.21,40.61,38.49a5.93,5.93,0,0,1-7.94,8.23c-7.13-3.89-10.43-3.74-11.25-3-.29.25-2.72,2.84,2.19,16.87Z" transform="translate(-1174.47 -612.35)"/><path d="M1603.61,1218.72a5.82,5.82,0,0,0-9.88-1c-1.17,1.64-1.53,3.91.07,7,4.67,9,10.34,10,10.34,10l15.27,4.67Z" transform="translate(-1174.47 -612.35)"/><path d="M2007.59,1307.83a44,44,0,0,1-11.36-1.63l2.59-9.66c8.64,2.31,15,1.54,19.36-2.36,9.19-8.17,8.46-28.82,7.4-36.09l-.44-3,2.5-1.77c14.5-10.27,31-31.68,34.38-52.72,1.88-11.6-.31-21.78-6.52-30.25-3.56-4.85-7.89-7.35-13.24-7.65-16.51-.92-38.83,19.24-46,27.08l-7.36-6.76c1.18-1.3,29.37-31.65,54-30.3,8.41.46,15.4,4.41,20.76,11.72,7.74,10.56,10.62,23.62,8.33,37.77-3.83,23.6-20.92,45.79-36.08,57.49.73,8.23,1.47,30.91-11,42C2020.19,1305.77,2014.42,1307.83,2007.59,1307.83Z" transform="translate(-1174.47 -612.35)"/><path d="M2016.83,1258.52l-6.61-2.31c4.92-14,2.49-16.62,2.19-16.87-.82-.7-4.11-.85-11.24,3a5.94,5.94,0,0,1-8-8.23c10.24-17.28,25.6-38,40.62-38.49a12.28,12.28,0,0,1,12.72,13.14c-.56,7.56-5.52,15.38-14.76,23.23l-4.54-5.33c9.67-8.21,12-14.55,12.32-18.41a5.12,5.12,0,0,0-1.44-4,5.3,5.3,0,0,0-4.07-1.64c-8.53.28-20.7,12.13-32.9,31.88,7.16-3.29,12.34-3.46,15.78-.54C2021.4,1237.79,2021.36,1245.58,2016.83,1258.52Z" transform="translate(-1174.47 -612.35)"/><path d="M2011.06,1218.72a5.81,5.81,0,0,1,9.87-1c1.17,1.64,1.54,3.91-.07,7-4.66,9-10.33,10-10.33,10l-15.12,4.67Z" transform="translate(-1174.47 -612.35)"/><path d="M1758.43,1171.76l-17.63-9.82a35.22,35.22,0,0,0-33.24-.79l-.24.11-20,8.29-2.68-6.47,19.89-8.24a42.2,42.2,0,0,1,39.7,1l17.62,9.81Z" transform="translate(-1174.47 -612.35)"/><path d="M1723,1185.37a16.84,16.84,0,1,1,16.83-16.84A16.85,16.85,0,0,1,1723,1185.37Zm0-23.67a6.84,6.84,0,1,0,6.83,6.83A6.84,6.84,0,0,0,1723,1161.7Z" transform="translate(-1174.47 -612.35)"/><ellipse cx="725.75" cy="558.49" rx="11.83" ry="11.53"/><path d="M1900.22,1187.37a16.53,16.53,0,1,1,16.83-16.53A16.7,16.7,0,0,1,1900.22,1187.37Zm0-23.06a6.54,6.54,0,1,0,6.83,6.53A6.69,6.69,0,0,0,1900.22,1164.31Z" transform="translate(-1174.47 -612.35)"/><circle cx="548.54" cy="555.93" r="9.25"/><rect x="680.33" y="541.51" width="90.67" height="7"/><path d="M1806.57,1232.27c-4,0-6.73-2.67-9-4.87a17,17,0,0,0-5.43-4c-1.6-.61-3-.19-5.42.67-3.38,1.18-8,2.81-13.86-.67a8.2,8.2,0,0,1-4.14-6.17c-.92-7.28,7.5-16.12,9.2-17.82l4.95,4.95-2.47-2.47,2.47,2.47c-3.12,3.13-7.57,9.11-7.21,12,0,.32.13.64.77,1,3,1.81,5,1.12,8,.08,2.75-1,6.17-2.16,10.25-.59a23.22,23.22,0,0,1,7.79,5.52c2.55,2.47,3.43,3.11,4.71,2.83,2.11-.46,4.71-2.65,7-4.58,3.15-2.66,5.87-4.95,9-4.46a33.5,33.5,0,0,1,3.66.88c2.27.63,6.07,1.68,7.45,1,.15-.08.17-.1.22-.29.56-2.52-3.06-9-5.9-12.73l5.57-4.25c1.46,1.92,8.66,11.8,7.16,18.51a7.23,7.23,0,0,1-3.83,5c-3.83,2-8.66.64-12.55-.44-1-.26-1.87-.52-2.54-.65a26,26,0,0,0-3.76,2.84c-2.92,2.46-6.22,5.24-10,6.07A10.15,10.15,0,0,1,1806.57,1232.27Z" transform="translate(-1174.47 -612.35)"/><path d="M1819.35,1202.83c-15-9.12-26.25-.52-26.72-.15l-2.49-3.12c.13-.11,13.79-10.76,31.28-.15Z" transform="translate(-1174.47 -612.35)"/><path d="M1763.39,1375.23c-13.55,0-23.71-5.61-32.38-11.16-31.11-19.87-28.49-84.55-28.37-87.29l11,.51-5.49-.26,5.49.26c0,.6-2.46,61,23.3,77.51,11.94,7.63,21.59,11.45,35.62,8.39,16.69-3.63,38.76-16.9,69.46-41.76,22.62-18.32,39-31.54,48.64-39.27,4-3.22,6.38-5.1,7.75-6.18.73-.57,1.2-.92,1.48-1.13a5.54,5.54,0,0,1,7.89.63c1.21,1.45,2.54,5-1.07,8.07l-7.12-8.36a5.49,5.49,0,0,0,7,8.37c-.71.51-7,5.35-57.66,46.41-32.08,26-55.61,40-74,44A54,54,0,0,1,1763.39,1375.23Z" transform="translate(-1174.47 -612.35)"/><path d="M1816.57,1349.88c-16.22-19.51-35.55-19.31-46-17.31l4.9,5.61c1.08,1.17,2.16,2.4,3.22,3.7l-8.39,7.1-3-3.45c-25.28-27.17-55-14.39-56.25-13.81l-4.53-10a60.69,60.69,0,0,1,24.34-4.41,59.41,59.41,0,0,1,27.64,7.42l0,0a57.24,57.24,0,0,1,22.47-4c11.83.21,29.07,4.23,44,22.19Z" transform="translate(-1174.47 -612.35)"/><rect x="616" y="660.18" width="34" height="11"/><path d="M1842,1314.2H1735.64a13.68,13.68,0,0,1-13.67-13.67V1284h11v16.5a2.68,2.68,0,0,0,2.67,2.67H1842a2.68,2.68,0,0,0,2.67-2.67V1286h11v14.5A13.68,13.68,0,0,1,1842,1314.2Z" transform="translate(-1174.47 -612.35)"/><path d="M1638.48,1213.81c-19.45-17.29-21.74-47.78-21.83-49.07l11-.75-5.48.38,5.48-.38c0,.27,2.11,27.33,18.17,41.6Z" transform="translate(-1174.47 -612.35)"/><path d="M1976.12,1217.81l-7.3-8.22c16.4-14.58,22.22-40.15,22.28-40.41l10.74,2.37C2001.58,1172.73,1995.24,1200.82,1976.12,1217.81Z" transform="translate(-1174.47 -612.35)"/><path d="M1724.4,1188.22c-1.23,0-2.5,0-3.81-.16-26.95-2.31-32.58-19.57-32.8-20.3l2.86-.89c.21.65,5.36,16.07,30.2,18.2s34.61-18,35-18.89l2.72,1.27C1758.48,1167.66,1748.6,1188.22,1724.4,1188.22Z" transform="translate(-1174.47 -612.35)"/><path d="M1899.94,1189.68q-1.39,0-2.85-.12c-26.92-2.31-36.2-29.5-36.3-29.78l2.85-.94c.09.26,8.78,25.59,33.71,27.73s38.37-27.08,38.5-27.37l2.74,1.23C1938.45,1160.73,1925.1,1189.68,1899.94,1189.68Z" transform="translate(-1174.47 -612.35)"/></g><g id="Слой_8" data-name="Слой 8"><path d="M1411.14,1565.36a7.72,7.72,0,0,1-.09,1.18h0a8,8,0,1,1-7.91-9.19,7.75,7.75,0,0,1,1.82.21A8,8,0,0,1,1411.14,1565.36Z" transform="translate(-1174.47 -612.35)"/><circle cx="1058.67" cy="944.01" r="8"/></g><g id="Слой_11" data-name="Слой 11"><circle class="cls-1" cx="559.13" cy="562.59" r="6.12"/><circle class="cls-1" cx="737.88" cy="563.59" r="6.12"/></g></svg>