<svg id="Capa_1" data-name="Capa 1" xmlns="http://www.w3.org/2000/svg" viewBox="0 0 112.2 112.2"><defs><style>.cls-1{fill:#f1f2f2;}</style></defs><title>twitter</title><circle cx="56.1" cy="56.1" r="56.1"/><path class="cls-1" d="M90.46,40.32a26.84,26.84,0,0,1-7.7,2.1A13.44,13.44,0,0,0,88.66,35a27.12,27.12,0,0,1-8.52,3.25A13.42,13.42,0,0,0,57.29,50.49a38.07,38.07,0,0,1-27.64-14,13.44,13.44,0,0,0,4.15,17.9,13.24,13.24,0,0,1-6.07-1.68v.17A13.41,13.41,0,0,0,38.48,66a13.43,13.43,0,0,1-6,.23A13.42,13.42,0,0,0,45,75.57,26.94,26.94,0,0,1,28.3,81.31a28.2,28.2,0,0,1-3.2-.19,38,38,0,0,0,20.56,6c24.66,0,38.15-20.43,38.15-38.15,0-.58,0-1.16,0-1.73a27.42,27.42,0,0,0,6.69-6.94Z" transform="translate(0 0)"/></svg>