<svg id="Capa_1" data-name="Capa 1" xmlns="http://www.w3.org/2000/svg" viewBox="0 0 112.2 112.2"><defs><style>.cls-1{fill-rule:evenodd;}</style></defs><title>vk</title><path class="cls-1" d="M56.1,0a56.1,56.1,0,1,0,56.1,56.1A56.1,56.1,0,0,0,56.1,0ZM88.24,80.7l-9.84.14s-2.11.42-4.89-1.49c-3.68-2.53-7.16-9.09-9.86-8.24S61,77.89,61,77.89a3.19,3.19,0,0,1-.61,1.93,3.66,3.66,0,0,1-2,.88H54s-9.72.59-18.27-8.32c-9.33-9.72-17.57-29-17.57-29s-.48-1.27,0-1.88,2.16-.73,2.16-.73l10.52-.07a4.66,4.66,0,0,1,1.71.69,3.33,3.33,0,0,1,.91,1.23,70.46,70.46,0,0,0,4,8.2c4.4,7.6,6.45,9.26,7.94,8.44,2.18-1.18,1.53-10.74,1.53-10.74s0-3.47-1.1-5a4.92,4.92,0,0,0-3.27-1.64c-.59-.08.38-1.46,1.64-2.07,1.9-.93,5.24-1,9.19-.94a19,19,0,0,1,5.17.51c3.63.88,2.4,4.26,2.4,12.38,0,2.59-.47,6.25,1.41,7.46.8.52,2.77.08,7.7-8.29a64.5,64.5,0,0,0,4.1-8.64,3.12,3.12,0,0,1,1-1.19,2.54,2.54,0,0,1,1.43-.25l11.08-.07s3.33-.4,3.87,1.1-1.25,5.26-5.77,11.29c-7.43,9.91-8.26,9-2.09,14.71,5.89,5.47,7.11,8.13,7.31,8.46C93.38,80.38,88.24,80.7,88.24,80.7Z" transform="translate(0 0)"/></svg>