<svg id="Capa_1" data-name="Capa 1" xmlns="http://www.w3.org/2000/svg" viewBox="0 0 96 96"><defs><style>.cls-1{fill:#030104;}</style></defs><title>vkontakte-logo</title><path class="cls-1" d="M51,42.86A5.45,5.45,0,0,0,53,38.59a5,5,0,0,0-2.27-4.28c-1.54-.9-4.35-.69-6.15-.69H42.05V44h3.29C47.21,44,49.42,44.11,51,42.86Z"/><path class="cls-1" d="M52.9,0h-10A48.28,48.28,0,0,0,0,42.33V53.67A48.28,48.28,0,0,0,42.92,96h10A48.26,48.26,0,0,0,96,51.9V44.1A48.26,48.26,0,0,0,52.9,0ZM50.6,72.53H31V25.2H52.42c6.21,0,11.93,3.95,11.93,10.92,0,5.38-3,9.07-6.83,10.21v.14c5.68,1.18,9.74,4.26,9.74,11.71C67.26,65.07,62.57,72.53,50.6,72.53Z"/><path class="cls-1" d="M53.17,52.91c-1.53-.9-3.67-.9-5.41-.9H42.05V63.77h5.24c1.94,0,4.41.14,6.08-1a6.11,6.11,0,0,0,2.41-5A6,6,0,0,0,53.17,52.91Z"/></svg>